<?xml version="1.0" standalone="no"?>
<!DOCTYPE svg PUBLIC "-//W3C//DTD SVG 1.1//EN" "http://www.w3.org/Graphics/SVG/1.1/DTD/svg11.dtd" >
<!--
2013-9-30: Created.
-->
<svg>
<metadata>
Created by iconfont
</metadata>
<defs>

<font id="iconfont" horiz-adv-x="1024" >
  <font-face
    font-family="iconfont"
    font-weight="500"
    font-stretch="normal"
    units-per-em="1024"
    ascent="896"
    descent="-128"
  />
    <missing-glyph />
    
    <glyph glyph-name="icon_reason" unicode="&#58939;" d="M512-93.866667a477.866667 477.866667 0 1 1 0 955.733334 477.866667 477.866667 0 0 1 0-955.733334zM477.866667 257.365333a744.584533 744.584533 0 0 0-0.341334 18.909867c0 24.712533 3.4816 46.08 10.513067 64.034133 5.12 13.5168 13.380267 27.170133 24.849067 40.96 8.3968 10.0352 23.483733 24.644267 45.329066 43.895467 21.845333 19.2512 35.976533 34.6112 42.530134 46.08 6.485333 11.400533 9.762133 23.893333 9.762133 37.410133 0 24.507733-9.557333 46.011733-28.672 64.580267a97.211733 97.211733 0 0 1-70.314667 27.8528c-26.897067 0-49.288533-8.3968-67.242666-25.258667-17.954133-16.7936-29.764267-43.008-35.362134-78.711466l-64.7168 7.714133c5.802667 47.786667 23.1424 84.445867 51.950934 109.909333 28.808533 25.3952 66.901333 38.0928 114.2784 38.0928 50.176 0 90.180267-13.653333 120.0128-40.96 29.9008-27.306667 44.8512-60.279467 44.8512-98.986666 0-22.459733-5.256533-43.076267-15.7696-61.986134-10.513067-18.909867-31.061333-41.847467-61.576534-68.949333-20.548267-18.158933-33.9968-31.607467-40.277333-40.277333-6.280533-8.6016-10.922667-18.500267-13.994667-29.696-3.003733-11.195733-4.778667-29.354667-5.256533-54.613334H477.866667z m-3.822934-126.293333v71.68h71.68v-71.68h-71.68z"  horiz-adv-x="1024" />

    
    <glyph glyph-name="iconshanchu" unicode="&#58938;" d="M339.342222 94.776889a31.402667 31.402667 0 0 1 31.402667 31.345778V521.159111a31.402667 31.402667 0 0 1-62.805333 0v-395.036444a32.426667 32.426667 0 0 1 31.402666-31.345778z m346.055111 0a31.402667 31.402667 0 0 1 31.345778 31.345778V521.159111a31.402667 31.402667 0 0 1-62.748444 0v-395.036444c0-17.294222 14.051556-31.288889 31.402666-31.345778z m-173.056 0a31.402667 31.402667 0 0 1 31.402667 31.345778V521.159111a31.402667 31.402667 0 0 1-62.748444 0v-395.036444c0-17.294222 14.051556-31.288889 31.345777-31.345778zM980.821333 761.116444H741.262222v42.894223c0 44.316444-36.067556 80.327111-80.384 80.327111H364.657778c-44.259556 0-80.327111-36.010667-80.327111-80.327111v-42.894223H43.804444a31.402667 31.402667 0 0 1 0-62.748444h116.394667V39.253333a130.275556 130.275556 0 0 1 130.104889-130.161777h444.017778a130.275556 130.275556 0 0 1 130.104889 130.161777V699.164444h116.337777a31.402667 31.402667 0 0 1 31.402667 31.345778 30.663111 30.663111 0 0 1-31.402667 30.606222zM346.225778 804.010667a18.204444 18.204444 0 0 0 18.375111 18.375111h296.277333a18.204444 18.204444 0 0 0 18.375111-18.375111v-42.894223H346.225778v42.894223z m455.509333-764.757334c0-37.148444-30.208-67.413333-67.356444-67.413333H290.360889A67.470222 67.470222 0 0 0 223.004444 39.253333V699.164444h578.730667v-659.911111z"  horiz-adv-x="1024" />

    
    <glyph glyph-name="gengduo" unicode="&#58937;" d="M264.52 401.552c0-42.952-34.808-77.752-77.784-77.752-42.952 0-77.76 34.808-77.76 77.752 0 42.984 34.808 77.784 77.76 77.784a77.76 77.76 0 0 0 77.784-77.784zM583.616 401.552c0-42.952-34.808-77.752-77.8-77.752-42.952 0-77.76 34.808-77.76 77.752 0 42.984 34.808 77.784 77.76 77.784a77.76 77.76 0 0 0 77.8-77.784zM902.704 401.552c0-42.952-34.808-77.752-77.792-77.752-42.976 0-77.784 34.808-77.784 77.752a77.76 77.76 0 0 0 77.784 77.784 77.76 77.76 0 0 0 77.792-77.784z"  horiz-adv-x="1024" />

    
    <glyph glyph-name="fapiao" unicode="&#58936;" d="M966.087111 390.826667c18.147556 18.033778 29.468444 42.894222 29.468445 67.697777 0 24.917333-9.102222 49.777778-27.192889 67.811556l-72.476445 74.581333c-9.045333 9.045333-18.090667 13.539556-29.411555 13.539556-13.653333-2.275556-22.641778-4.494222-29.468445-11.264-29.411556-27.136-74.752-27.136-101.888 0a69.973333 69.973333 0 0 0-20.423111 49.720889c0 18.033778 6.826667 36.124444 20.423111 49.664a42.894222 42.894222 0 0 1 0 61.041778l-72.476444 74.524444C644.494222 856.291556 619.52 865.28 594.659556 867.555556c-27.192889 0-52.110222-9.045333-70.200889-27.136L57.912889 379.505778C39.765333 361.415111 28.444444 336.554667 28.444444 311.694222c0-24.860444 9.102222-49.720889 27.192889-70.030222l72.476445-72.305778c9.045333-9.102222 18.090667-13.596444 29.411555-13.596444 9.102222 0 20.423111 4.551111 29.468445 11.320889 27.192889 24.860444 72.476444 24.860444 97.393778-2.275556 13.596444-13.539556 20.366222-31.630222 20.366222-49.720889 0-18.033778-6.826667-36.124444-20.366222-49.664-9.102222-9.102222-13.596444-18.090667-13.596445-29.411555 0-11.264 4.551111-22.584889 11.320889-31.630223l72.476444-74.524444c18.147556-18.090667 43.008-29.411556 70.200889-29.411556 24.917333 0 49.834667 9.045333 67.982223 27.136 234.382222 233.813333 238.933333 229.262222 473.315555 463.189334zM329.671111 300.373333c-9.102222-9.045333-18.090667-13.539556-29.411555-13.539555-11.377778 0-22.698667 4.551111-29.468445 13.539555-9.102222 9.102222-13.596444 18.090667-13.596444 29.411556a36.408889 36.408889 0 0 0 13.596444 29.354667L547.100444 634.88c15.872 15.815111 45.283556 15.815111 61.155556 0 15.872-15.815111 15.872-42.951111 0-61.041778L329.671111 300.373333z m149.504-144.611555c-9.102222-9.045333-18.147556-13.539556-29.468444-13.539556s-22.641778 4.551111-29.411556 13.539556c-9.102222 9.102222-13.653333 18.090667-13.653333 29.411555a36.408889 36.408889 0 0 0 13.653333 29.354667l276.309333 275.683556c15.815111 15.815111 45.283556 15.815111 61.155556 0 15.815111-15.815111 15.815111-42.951111 0-61.041778l-278.584889-273.408z"  horiz-adv-x="1024" />

    
    <glyph glyph-name="shoudong" unicode="&#58935;" d="M682.6496 838.9632a28.416 28.416 0 1 0 0-56.832H113.8176c-31.3856 0-56.832-25.4976-56.832-56.9344v-739.4304c0-31.4368 25.4464-56.8832 56.832-56.8832h682.5984c31.3856 0 56.832 25.4464 56.832 56.832V583.0656a28.416 28.416 0 0 0 56.9344 0v-597.248A113.7664 113.7664 0 0 0 796.416-128H113.8176a113.7664 113.7664 0 0 0-113.7664 113.7664V725.1968c0 62.8224 50.944 113.7664 113.7664 113.7664h568.832z m28.416-568.832a28.416 28.416 0 1 0 0-56.832H199.168a28.416 28.416 0 0 0 0 56.832h511.8976zM426.7008 497.664a28.416 28.416 0 1 0 0-56.832H199.168a28.416 28.416 0 1 0 0 56.832h227.5328zM974.848 887.6544l0.6656-0.6656a27.4944 27.4944 0 0 0-0.6656-39.5264l-402.5856-375.296a28.416 28.416 0 0 0-39.4752 0.6656l-0.7168 0.6656a27.4944 27.4944 0 0 0 0.7168 39.5264l2.048 1.9456-0.3072-0.2048 312.32 291.1744L935.424 888.3712a28.416 28.416 0 0 0 39.5264-0.7168z"  horiz-adv-x="1024" />

    
    <glyph glyph-name="saomiao" unicode="&#58934;" d="M973.824 576.1536a28.7744 28.7744 0 0 0-28.7744 28.7744V806.2464a32.3072 32.3072 0 0 1-32.256 32.3072h-201.3696a28.7232 28.7232 0 1 0 0 57.4464h201.3696c49.4592 0 89.7024-40.2432 89.7024-89.7536v-201.4208a28.672 28.672 0 0 0-28.672-28.672zM28.8256 576A28.7744 28.7744 0 0 0 0 604.672V805.9904C0 855.552 40.2944 895.8464 89.7536 895.8464h201.472a28.7232 28.7232 0 1 0-0.1536-57.5488H89.7536a32.256 32.256 0 0 1-32.256-32.3072V604.672a28.672 28.672 0 0 0-28.672-28.672z m0-198.2464A28.8256 28.8256 0 0 0 0 406.528C0 422.3488 12.9536 435.2 28.8256 435.2h945.92c15.872 0 28.7744-12.9024 28.7744-28.7744a28.928 28.928 0 0 0-28.928-28.672H28.8256z m60.928-472.9856A89.856 89.856 0 0 0 0-5.4784v201.3184a28.8256 28.8256 0 0 0 57.6 0v-201.3184c0-17.8176 14.4896-32.256 32.256-32.256H291.328a28.672 28.672 0 0 0 28.672-28.7744 28.928 28.928 0 0 0-28.928-28.7232H89.7536z m621.6704 0a28.7744 28.7744 0 0 0 0 57.6h201.472a32.256 32.256 0 0 1 32.256 32.256v201.3184a28.8768 28.8768 0 0 0 49.152 20.3776 28.1088 28.1088 0 0 0 8.2944-20.2752v-201.4208a90.0096 90.0096 0 0 0-89.8048-89.856h-201.3696z"  horiz-adv-x="1024" />

    
    <glyph glyph-name="icon-horn" unicode="&#58933;" d="M97.669697 189.897709V568.7085c0 8.191887 6.52791 5.887919 14.719798 5.887919h128.382234c3.199956 0 7.743894-0.255996 10.687853 0.127999 3.455952 0.383995 5.503924 1.855974 8.255887 2.559964 4.223942 1.151984 3.839947 0.575992 7.359899 2.431967 7.167901 3.839947 13.183819 7.615895 19.519731 12.991821 3.903946 3.391953 7.359899 6.783907 11.327845 10.239859l37.567483 33.407541 0.511993 0.447994 7.487897 6.271914c2.303968 2.367967 3.071958 2.94396 5.631923 5.183928a55.359239 55.359239 0 0 1 1.023985 0.959987l1.535979 1.407981c1.087985 1.023986 1.919974 1.599978 3.199956 2.687963l39.551457 35.199516c2.431967 2.17597 3.455952 2.559965 5.887919 4.991931l22.52769 19.839727c2.111971 1.983973 3.519952 3.007959 5.759921 5.11993l56.70322 50.495306 2.559965 2.367967 49.919313 42.559415v-860.276171c-3.199956 0.831989-6.207915 3.775948-8.831878 5.887919l-2.559965 2.367967-0.447994 0.511993-2.623964 2.303969-15.99978 13.503814-0.511993 0.511993-6.847906 5.951918-0.511993 0.447994-19.199736 16.191777a158.077826 158.077826 0 0 1-11.775838 9.919864l-9.471869 8.191887-1.535979 1.47198-19.775728 16.639771-3.071958 2.815961-130.878201 112.254457c-2.239969 1.919974-3.711949 2.87996-5.951918 4.863933l-11.519841 10.17586c-7.935891 6.399912-16.383775 13.11982-26.623634 15.615785-2.047972 0.511993-6.143916 1.023986-8.319886 1.535979-18.17575 4.223942-52.991271 2.17597-72.319005 2.17597h-73.598988c-4.095944-0.127998-7.679894-1.023986-7.679895 2.94396zM545.663537 896c11.519842 0 20.671716 0 30.335583-6.015917l18.367747-17.023766c4.415939-6.719908 9.087875-15.359789 9.087875-26.431637v-925.555273a46.719358 46.719358 0 0 0-14.399802-31.935561 53.951258 53.951258 0 0 0-21.119709-14.335803c-14.5278-5.247928-27.391623-2.17597-41.215433 3.455952-13.439815 5.439925-24.319666 16.447774-34.94352 26.047642-9.983863 9.023876-21.11971 16.895768-30.975574 26.047642l-8.895878 7.871892c-10.431857 9.663867-22.399692 17.663757-32.447554 27.519621l-24.511663 20.863714c-16.639771 12.927822-32.191557 27.519622-48.191337 41.343431l-28.095614 24.063669-0.511993 0.447994-29.0556 25.087655c-1.663977 1.599978-2.047972 1.727976-3.711949 3.199956l-3.071958 2.815961c-2.815961 2.559965-4.159943 3.199956-6.975904 5.82392-2.431967 2.367967-4.287941 3.64795-6.911905 5.887919l-13.631812 11.967836c-12.287831 9.983863-9.215873 12.607827-25.727647 12.543827H88.773819c-7.551896 0-4.991931 1.023986-10.239859 2.559965-2.623964 0.70399-3.007959 0.191997-5.631922 1.151984a63.487127 63.487127 0 0 0-20.223722 13.247818l-15.359789 21.055711a47.167351 47.167351 0 0 0-5.311927 19.391733v404.474438l2.111971 11.711839c3.071958 8.191887 3.071958 9.599868 7.487897 17.087765a62.783137 62.783137 0 0 0 24.639661 22.655689c1.919974 1.087985 1.343982 1.087985 3.775948 2.17597 26.431637 11.775838 75.966955 6.655908 108.990502 6.655908h51.967285c8.70388 0 9.215873-0.639991 15.29579 4.351941l16.831768 14.719797c4.799934 4.479938 9.343872 8.063889 14.079807 12.479829l56.191227 50.111311 0.511993 0.447993 11.455842 10.23986c2.751962 2.559965 4.415939 4.415939 7.167902 6.52791l27.711619 24.447664c1.663977 1.535979 2.303968 1.919974 3.711949 3.199956l7.2319 6.591909 0.511993 0.447994L482.688403 855.680554l2.111971 1.855975 15.615785 13.887809c1.855974 1.791975 1.407981 1.215983 3.199956 2.687963 2.687963 2.111971 3.967945 3.967945 6.719908 6.079916 2.303968 1.727976 4.671936 3.711949 7.423898 5.375926L518.399912 885.952138l5.759921 3.135957c1.087985 0.447994 0.511993 0 2.111971 0.767989 2.94396 1.279982 1.663977 1.407981 4.415939 2.431967 2.559965 1.023986 2.111971 0.447994 4.863933 1.023986C539.071628 894.144026 540.607607 896 545.663537 896z m141.246058-118.590369l5.759921-0.064 18.431746-4.159942c2.687963-0.831989 4.991931-1.983973 8.319886-2.559965l17.023766-4.479939c3.199956-1.343982 4.863933-1.663977 8.063889-2.815961 2.751962-0.959987 4.607937-1.791975 7.935891-2.815961 3.391953-1.023986 4.479938-1.791975 7.871892-2.94396l23.359678-10.047861c12.991821-5.82392 24.831659-12.991821 37.311487-19.775729 9.151874-4.927932 17.663757-11.903836 26.687633-17.535758l24.76766-19.519732 71.99901-79.614905 1.215983-1.791976 1.919974-2.943959 12.799824-20.735715c1.215983-1.791975 1.087985-1.919974 2.047972-3.839947l12.991821-24.511663c3.071958-5.11993 4.543938-10.559855 6.783907-15.871782l5.119929-11.711839c5.631923-13.183819 8.831879-28.287611 12.159833-36.159503 1.407981-3.391953 1.279982-4.671936 2.111971-8.767879l4.223942-17.47176c1.983973-5.375926 2.239969-11.64784 3.711949-18.047752l0.831989-4.863933c1.791975-12.287831 3.839947-37.631483 3.839947-44.799384v-30.655578c0-21.759701-2.111971-23.99967-3.775948-40.703441-1.599978-16.063779-4.159943-22.719688-6.59191-36.863493l-3.199956-13.503814c-0.959987-3.903946-0.383995-1.535979-1.279982-3.64795-1.47198-3.455952-1.343982-4.991931-2.559965-8.319886l-5.375926-16.383774c-0.895988-3.327954-1.727976-4.671936-2.94396-7.871892l-0.767989-2.239969-1.983973-3.839948-0.319995-0.70399c-4.863933-11.775838-9.535869-24.319666-15.99978-35.327514l-9.279873-17.279762c-1.663977-2.815961-2.559965-3.903946-4.287941-6.59191l-34.87952-48.895328-0.447994-0.511993a80.894888 80.894888 0 0 1-0.895988-1.023985c-6.847906-7.99989-13.183819-16.383775-20.863713-23.487677l-1.535979-1.407981c-12.799824-11.711839-25.023656-23.551676-38.847465-33.983533l-71.167022-43.967395c-10.87985-5.375926-22.399692-10.687853-33.727536-14.335803l-8.127888-2.751962c-3.391953-1.215983-4.863933-1.151984-8.191888-2.559965-11.071848-4.799934-23.103682-6.463911-34.239529-8.959877-3.903946-0.895988-4.607937-2.559965-8.319886-2.559965-14.847796 0-20.479718-0.767989-32.063559 11.071848a22.52769 22.52769 0 0 0-5.887919 8.895878c-4.671936 14.399802-3.967945 10.239859-0.639991 23.039683 4.671936 18.431747 20.415719 21.567703 34.303528 24.639661 3.839947 0.831989 3.839947 1.791975 7.423898 2.431967 4.159943 0.70399 5.183929 0.383995 8.959877 1.791975l57.343212 22.271694c1.791975 0.895988 1.599978 1.023986 3.071957 1.791975l6.399912 3.455953c1.727976 1.023986 1.727976 0.895988 3.263955 1.663977l12.543828 7.103902c16.319776 9.855864 25.535649 18.111751 39.743454 29.1196 1.983973 1.599978 3.64795 2.559965 5.503924 4.35194l34.559525 35.391513c8.191887 10.751852 17.919754 21.503704 24.959656 33.151544l11.391844 19.135737c7.807893 15.743784 16.831769 31.039573 22.079696 47.99934l7.103903 22.399692c2.239969 7.039903 5.311927 16.127778 6.015917 23.679675 0.767989 7.679894 2.559965 7.679894 2.943959 16.767769 0.255996 6.143916 2.559965 10.559855 2.94396 16.831769l0.959987 51.391293c0 10.687853-0.639991 19.007739-2.559965 28.031615-1.407981 6.079916-0.255996 12.35183-1.983973 17.791755l-12.735825 47.487347-23.039683 51.839287-1.727976 3.263955-20.799714 32.383555-0.447994 0.575992-20.223722 25.087655c-1.855974 1.919974-3.199956 3.007959-4.799934 5.055931l-12.479828 13.119819-0.511993 0.447994-22.015698 19.327734-0.575992 0.447994-0.575992 0.383995-1.599978 1.407981-0.511993 0.383994-12.799824 9.791866a55.679234 55.679234 0 0 0-0.639991 0.447994c-16.639771 10.94385-33.279542 22.399692-51.711289 29.887589l-36.031504 14.079806c-2.559965 0.831989-0.447994 0.383995-3.455953 1.47198l-19.583731 4.927932c-3.391953 0.70399-4.927932 2.047972-8.191887 2.623964-4.479938 0.767989-4.095944 0.127998-8.191887 1.663977-10.239859 3.839947-16.383775 7.679894-22.271694 17.087765-1.791975 2.815961-0.511993 0-1.535979 3.327954-1.535979 4.991931-3.007959 8.959877-3.007959 14.719798 0 6.52791 5.247928 15.807783 9.535869 20.095724a32.767549 32.767549 0 0 0 8.127888 6.591909c9.279872 4.927932 10.047862 4.031945 21.503705 4.031944z m32.255556-220.604967c11.391843 0 40.127448-21.887699 50.687304-30.911575l17.471759-17.919754 29.439595-46.52736c2.751962-5.247928 3.199956-9.47187 5.503925-15.23179l2.687963-7.167902c0.831989-3.199956 0.383995-1.535979 1.215983-3.711949 1.343982-3.64795 1.279982-8.767879 2.239969-12.543827 0.831989-3.455952 2.111971-3.903946 2.431967-8.447884 0.319996-3.839947 0.383995-6.399912 0.767989-9.087875 2.047972-16.383775 1.663977-20.223722 0.319996-36.4155-0.319996-4.479938-0.639991-14.335803-1.599978-18.111751l-15.039793-47.167351c-14.911795-26.495636-5.695922-12.159833-23.167682-36.927492l-16.127778-18.303749c-4.607937-5.11993-19.199736-17.215763-25.407651-20.863713l-6.783906-4.095943c-2.17597-1.279982-4.031945-2.687963-5.951918-3.839948l-12.671826-7.039903c-5.631923-2.047972-11.64784-1.279982-17.791756-0.831988-5.183929 0.319996-3.583951 0.447994-7.423898 2.431966a33.919534 33.919534 0 0 0-15.615785 14.911795l-4.415939 15.359789c0 5.759921 4.159943 16.127778 8.063889 20.479718l47.935341 37.759481c2.559965 2.559965 4.095944 5.311927 6.52791 8.191888 5.503924 6.719908 9.343872 14.719798 13.183819 22.271693l5.887919 15.871782c3.071958 11.391843 5.631923 23.29568 5.631922 35.839507 0 20.159723-7.103902 44.159393-17.279762 61.631153l-3.391953 5.439925-0.895988 1.151984-17.535759 20.863713c-7.167901 7.039903-16.191777 12.415829-24.639661 17.599758l-15.99978 12.607827a35.455512 35.455512 0 0 0-5.951918 14.719798c-0.447994 1.791975-1.535979 4.159943-1.535979 5.375926l3.199956 12.607826 2.111971 3.839948 0.383995 0.575992 3.071957 4.799934a25.215653 25.215653 0 0 0 8.703881 7.039903c7.743894 4.35194 12.671826 3.839947 21.7597 3.839947z"  horiz-adv-x="1024" />

    
    <glyph glyph-name="icon-fork" unicode="&#58932;" d="M899.925333 853.333333l80.384-80.384-382.634666-382.634666 394.24-394.24-80.384-80.384-394.24 394.24-394.24-394.24-80.384 80.384 394.24 394.24L54.272 772.949333 134.656 853.333333l382.634667-382.634666L899.925333 853.333333z"  horiz-adv-x="1024" />

    
    <glyph glyph-name="icon_selected_done" unicode="&#58931;" d="M512 841.142857c61.769143 0 121.636571-12.032 177.92-35.949714A455.058286 455.058286 0 0 0 835.291429 707.291429a455.058286 455.058286 0 0 0 97.938285-145.334858c23.808-56.283429 35.949714-116.150857 35.949715-177.92s-12.032-121.636571-35.949715-177.92a455.058286 455.058286 0 0 0-97.938285-145.334857 455.058286 455.058286 0 0 0-145.334858-97.938285c-56.283429-23.808-116.150857-35.949714-177.92-35.949715s-121.636571 12.032-177.92 35.949715A455.058286 455.058286 0 0 0 188.708571 60.708571a455.058286 455.058286 0 0 0-97.938285 145.334858A454.436571 454.436571 0 0 0 54.857143 384c0 61.769143 12.032 121.636571 35.949714 177.92A455.058286 455.058286 0 0 0 188.708571 707.291429a455.058286 455.058286 0 0 0 145.334858 97.938285A452.315429 452.315429 0 0 0 512 841.142857zM512 896C229.266286 896 0 666.733714 0 384s229.266286-512 512-512 512 229.266286 512 512S794.733714 896 512 896zM758.674286 521.216a30.72 30.72 0 0 0 0-44.105143l-272.566857-264.411428-0.950858-0.950858a33.060571 33.060571 0 0 0-46.957714-1.572571l-136.301714 132.278857a30.72 30.72 0 0 0 0 44.141714c12.434286 12.068571 32.914286 12.068571 45.458286 0l113.517714-110.153142 252.342857 244.772571c12.434286 12.068571 32.914286 12.068571 45.458286 0z"  horiz-adv-x="1024" />

    
    <glyph glyph-name="icon_selected3" unicode="&#58930;" d="M512 841.142857c61.769143 0 121.636571-12.032 177.92-35.949714A455.058286 455.058286 0 0 0 835.291429 707.291429a455.058286 455.058286 0 0 0 97.938285-145.334858c23.808-56.283429 35.949714-116.150857 35.949715-177.92s-12.032-121.636571-35.949715-177.92a455.058286 455.058286 0 0 0-97.938285-145.334857 455.058286 455.058286 0 0 0-145.334858-97.938285c-56.283429-23.808-116.150857-35.949714-177.92-35.949715s-121.636571 12.032-177.92 35.949715A455.058286 455.058286 0 0 0 188.708571 60.708571a455.058286 455.058286 0 0 0-97.938285 145.334858A454.436571 454.436571 0 0 0 54.857143 384c0 61.769143 12.032 121.636571 35.949714 177.92A455.058286 455.058286 0 0 0 188.708571 707.291429a455.058286 455.058286 0 0 0 145.334858 97.938285A452.315429 452.315429 0 0 0 512 841.142857zM512 896C229.266286 896 0 666.733714 0 384s229.266286-512 512-512 512 229.266286 512 512S794.733714 896 512 896zM623.469714 201.142857v88.941714h57.929143v58.514286h-57.929143v269.165714h-71.387428L346.697143 346.258286v-56.173715h209.481143V201.142857h67.291428z m-62.610285 147.456h-145.115429l145.115429 189.586286v-189.586286z"  horiz-adv-x="1024" />

    
    <glyph glyph-name="icon_selected2" unicode="&#58929;" d="M512 841.142857c61.769143 0 121.636571-12.032 177.92-35.949714A455.058286 455.058286 0 0 0 835.291429 707.291429a455.058286 455.058286 0 0 0 97.938285-145.334858c23.808-56.283429 35.949714-116.150857 35.949715-177.92s-12.032-121.636571-35.949715-177.92a455.058286 455.058286 0 0 0-97.938285-145.334857 455.058286 455.058286 0 0 0-145.334858-97.938285c-56.283429-23.808-116.150857-35.949714-177.92-35.949715s-121.636571 12.032-177.92 35.949715A455.058286 455.058286 0 0 0 188.708571 60.708571a455.058286 455.058286 0 0 0-97.938285 145.334858A454.436571 454.436571 0 0 0 54.857143 384c0 61.769143 12.032 121.636571 35.949714 177.92A455.058286 455.058286 0 0 0 188.708571 707.291429a455.058286 455.058286 0 0 0 145.334858 97.938285A452.315429 452.315429 0 0 0 512 841.142857zM512 896C229.266286 896 0 666.733714 0 384s229.266286-512 512-512 512 229.266286 512 512S794.733714 896 512 896zM517.266286 197.046857c42.898286 0 75.885714 10.825143 98.889143 32.475429 23.04 21.650286 34.523429 49.846857 34.523428 84.553143 0 28.489143-8.082286 50.834286-24.283428 66.998857-16.201143 16.201143-38.509714 28.379429-66.998858 36.571428V420.571429c26.514286 3.510857 47.104 13.933714 61.732572 31.305142 14.628571 17.371429 21.942857 39.131429 21.942857 65.243429 0 20.662857-4.973714 39.387429-14.921143 56.173714-9.947429 16.786286-24.685714 29.952-44.178286 39.497143-19.492571 9.545143-42.898286 14.336-70.217142 14.336-43.300571 0-77.238857-11.227429-101.814858-33.645714-24.576-22.418286-38.217143-53.942857-40.96-94.500572h65.536c2.742857 23.405714 10.934857 41.252571 24.576 53.540572 13.641143 12.288 30.610286 18.432 50.907429 18.432 20.297143 0 36.278857-5.485714 47.981714-16.384 11.702857-10.934857 17.554286-25.965714 17.554286-45.056 0-44.068571-31.817143-65.718857-95.378286-64.950857h-15.798857v-55.003429h15.798857c33.536 0 59.209143-6.034286 76.946286-18.139428 17.737143-12.068571 26.624-29.622857 26.624-52.662858 0-19.126857-6.144-34.742857-18.432-46.811428-12.288-12.068571-29.952-18.139429-52.955429-18.139429-24.576 0-44.068571 6.948571-58.514285 20.772572-14.445714 13.860571-22.820571 32.475429-25.161143 55.881143H364.544c3.913143-44.068571 19.309714-77.348571 46.226286-99.766858s62.427429-33.645714 106.496-33.645714z"  horiz-adv-x="1024" />

    
    <glyph glyph-name="icon_selected1" unicode="&#58928;" d="M512 841.142857c61.769143 0 121.636571-12.032 177.92-35.949714A455.058286 455.058286 0 0 0 835.291429 707.291429a455.058286 455.058286 0 0 0 97.938285-145.334858c23.808-56.283429 35.949714-116.150857 35.949715-177.92s-12.032-121.636571-35.949715-177.92a455.058286 455.058286 0 0 0-97.938285-145.334857 455.058286 455.058286 0 0 0-145.334858-97.938285c-56.283429-23.808-116.150857-35.949714-177.92-35.949715s-121.636571 12.032-177.92 35.949715A455.058286 455.058286 0 0 0 188.708571 60.708571a455.058286 455.058286 0 0 0-97.938285 145.334858A454.436571 454.436571 0 0 0 54.857143 384c0 61.769143 12.032 121.636571 35.949714 177.92A455.058286 455.058286 0 0 0 188.708571 707.291429a455.058286 455.058286 0 0 0 145.334858 97.938285A452.315429 452.315429 0 0 0 512 841.142857zM512 896C229.266286 896 0 666.733714 0 384s229.266286-512 512-512 512 229.266286 512 512S794.733714 896 512 896zM656.237714 204.068571v54.418286h-196.022857A592.603429 592.603429 0 0 1 548.571429 325.485714a380.086857 380.086857 0 0 1 70.509714 85.138286c18.541714 30.829714 27.794286 61.257143 27.794286 91.282286 0 37.449143-11.410286 66.816-34.230858 88.064-22.820571 21.248-54.308571 31.890286-94.500571 31.890285-40.96 0-74.605714-12.470857-100.937143-37.449142-26.331429-24.978286-40.850286-61.074286-43.593143-108.251429h64.950857c1.572571 28.489143 8.411429 50.432 20.48 65.828571 12.068571 15.396571 30.025143 23.113143 53.833143 23.113143 23.04 0 39.68-6.217143 50.029715-18.724571 10.349714-12.470857 15.506286-29.257143 15.506285-50.322286 0-35.474286-19.017143-74.020571-57.051428-115.565714-38.034286-41.545143-88.649143-83.968-151.844572-127.268572v-49.152h286.72z"  horiz-adv-x="1024" />

    
    <glyph glyph-name="icon_selected" unicode="&#58927;" d="M512 841.142857c61.769143 0 121.636571-12.032 177.92-35.949714A455.058286 455.058286 0 0 0 835.291429 707.291429a455.058286 455.058286 0 0 0 97.938285-145.334858c23.808-56.283429 35.949714-116.150857 35.949715-177.92s-12.032-121.636571-35.949715-177.92a455.058286 455.058286 0 0 0-97.938285-145.334857 455.058286 455.058286 0 0 0-145.334858-97.938285c-56.283429-23.808-116.150857-35.949714-177.92-35.949715s-121.636571 12.032-177.92 35.949715A455.058286 455.058286 0 0 0 188.708571 60.708571a455.058286 455.058286 0 0 0-97.938285 145.334858A454.436571 454.436571 0 0 0 54.857143 384c0 61.769143 12.032 121.636571 35.949714 177.92A455.058286 455.058286 0 0 0 188.708571 707.291429a455.058286 455.058286 0 0 0 145.334858 97.938285A452.315429 452.315429 0 0 0 512 841.142857zM512 896C229.266286 896 0 666.733714 0 384s229.266286-512 512-512 512 229.266286 512 512S794.733714 896 512 896zM580.315429 201.142857V614.253714h-132.242286v-62.610285h62.025143V201.142857z"  horiz-adv-x="1024" />

    
    <glyph glyph-name="icon_selected_arrow" unicode="&#58926;" d="M1120.256 384L463.127273 841.076364v-195.956364H331.682909v-522.24h131.444364v-195.863273l657.221818 456.983273zM134.609455 645.12v-522.24h131.444363v522.24H134.609455z m-131.444364 0v-522.24H68.887273v522.24H3.165091z"  horiz-adv-x="1120" />

    
    <glyph glyph-name="iconremind" unicode="&#58925;" d="M724.309333 875.178667c30.122667-21.418667 47.957333-56.064 47.872-93.013334v-737.536c0-37.034667-17.834667-71.68-47.786666-93.354666a110.08 110.08 0 0 0-64.256-18.261334c-12.544 0-25.002667 2.218667-36.778667 6.4l-5.034667 2.048L290.133333 110.421333a113.834667 113.834667 0 0 0-25.685333 13.909334l-143.36 0.085333A121.344 121.344 0 0 0 0 245.504V585.728c0 66.901333 54.186667 121.173333 121.088 121.344l146.944 0.085333c6.826667 4.522667 14.165333 8.277333 22.016 11.264L623.36 889.770667c34.048 11.946667 71.68 6.485333 100.949333-14.506667z m197.461334-699.989334l152.576-94.634666a39.936 39.936 0 0 0 12.970666-55.296 40.448 40.448 0 0 0-55.04-12.117334l-152.234666 94.890667a39.68 39.68 0 0 0 41.813333 67.157333zM651.605333 817.834667l-332.8-170.752a34.389333 34.389333 0 0 1-22.442666-32.768v-396.544a34.133333 34.133333 0 0 1 22.442666-33.877334l5.290667-2.304 327.509333-169.216c9.130667-2.304 18.773333-0.512 26.453334 5.034667a34.389333 34.389333 0 0 1 14.506666 28.501333V784.554667a34.389333 34.389333 0 0 1-14.506666 28.586666 30.976 30.976 0 0 1-26.453334 4.693334z m-433.493333-190.037334H121.088a42.069333 42.069333 0 0 1-41.813333-42.069333v-340.224a41.813333 41.813333 0 0 1 41.813333-41.813333h96.682667a114.261333 114.261333 0 0 0-0.768 12.458666V612.693333c0 5.12 0.426667 10.154667 1.109333 15.104z m851.2-176.64a39.68 39.68 0 1 0 0-79.36H907.093333a39.68 39.68 0 1 0 0 79.36h162.304zM1074.346667 812.373333a39.68 39.68 0 0 0 1.450666-69.888L923.136 647.68a39.68 39.68 0 0 0-41.813333 67.413333l152.32 94.72a39.68 39.68 0 0 0 40.618666 2.645334z"  horiz-adv-x="1109" />

    
    <glyph glyph-name="shanchu" unicode="&#58924;" d="M512 832c60.501333 0 119.210667-11.818667 174.378667-35.2 53.333333-22.613333 101.333333-54.912 142.421333-96a445.653333 445.653333 0 0 0 96-142.378667c23.381333-55.210667 35.2-113.92 35.2-174.421333 0-60.501333-11.818667-119.210667-35.2-174.378667a447.829333 447.829333 0 0 0-96-142.421333 445.653333 445.653333 0 0 0-142.421333-96c-55.168-23.381333-113.877333-35.2-174.378667-35.2-60.501333 0-119.210667 11.818667-174.421333 35.2a447.829333 447.829333 0 0 0-142.378667 96 445.653333 445.653333 0 0 0-96 142.421333A444.416 444.416 0 0 0 64 384c0 60.501333 11.818667 119.210667 35.2 174.421333a447.829333 447.829333 0 0 0 96 142.378667A446.165333 446.165333 0 0 0 512 832M512 896C229.205333 896 0 666.794667 0 384s229.205333-512 512-512 512 229.205333 512 512S794.794667 896 512 896zM778.24 405.333333H267.093333a32.341333 32.341333 0 0 1-32.426666-32c0-17.578667 14.592-32 32.426666-32h511.146667c17.834667 0 32.426667 14.421333 32.426667 32a32.341333 32.341333 0 0 1-32.426667 32z"  horiz-adv-x="1024" />

    
    <glyph glyph-name="xitongxiaoxi" unicode="&#58923;" d="M442.624 823.36a69.952 69.952 0 0 0 138.624 0 289.472 289.472 0 0 0 270.336-288.896v-277.504c0-7.872 2.304-15.552 6.656-22.08l112.128-169.472a40 40 0 0 0-33.28-62.08h-305.28a119.872 119.872 0 0 0-239.744 0H86.976a40 40 0 0 0-33.28 62.144l111.872 168.448a40 40 0 0 1 6.656 22.144V534.016a289.92 289.92 0 0 0 270.4 289.344z m401.408-729.984l-60.8 91.776a130.112 130.112 0 0 0-21.568 71.808V534.464a199.424 199.424 0 0 1-199.36 199.552H461.952a199.872 199.872 0 0 1-199.808-200V256c0-25.6-7.552-50.624-21.76-71.936l-60.224-90.752h663.872z"  horiz-adv-x="1024" />

    
    <glyph glyph-name="iconEwenti" unicode="&#58922;" d="M1023.829362 896a113.758818 113.758818 0 0 0 113.758818-113.758818v-625.673499a113.758818 113.758818 0 0 0-113.758818-113.758818h-283.828251L568.79409-128 398.952175 42.808865H113.758818a113.758818 113.758818 0 0 0-113.758818 113.758818V782.241182a113.758818 113.758818 0 0 0 113.758818 113.758818h910.070544z m0-85.319113H113.758818a28.439704 28.439704 0 0 1-28.269066-25.140699L85.319113 782.241182v-625.673499a28.439704 28.439704 0 0 1 25.140699-28.269066L113.758818 128.127979h320.572349l134.74732-135.372994 135.65739 135.372994H1023.829362a28.439704 28.439704 0 0 1 28.269066 25.140698L1052.269066 156.567683V782.241182a28.439704 28.439704 0 0 1-25.140699 28.269066L1023.829362 810.680887zM541.093818 327.774704l-0.568794 7.508082c-1.649503 22.751764 0.113759 34.070766 4.550352 49.314448 4.550353 15.812476 10.807088 30.032328 18.770205 42.31828 7.849358 12.229073 16.665667 23.263678 26.164528 32.76254 9.100705 9.100705 17.632617 18.087652 25.595734 27.188357 7.67872 8.70255 14.106093 18.087652 19.28212 27.870911a69.961673 69.961673 0 0 1 7.280564 32.70566c0 16.38127-4.436594 29.80481-13.082264 39.986224-8.304394 9.783258-23.832472 14.731767-46.072321 14.731767-13.992335 0-28.439704-2.957729-43.000833-8.816308-19.680276-7.963117-43.569627-18.542687-52.670333-24.458146l-8.190635-5.346665L455.035272 623.832028l5.289785 3.640282c17.234461 11.830917 49.826362 25.766372 66.43515 31.511193 18.428929 6.256735 41.294451 9.498861 68.141532 9.498861 19.338999 0 36.630339-2.90085 51.475865-8.70255 14.902405-5.858579 27.586513-13.935455 37.711048-24.116869 10.238294-10.181414 17.973893-22.353608 23.036161-36.175304 5.062267-13.537299 7.564961-28.269066 7.564961-43.854024 0-20.647225-3.014609-38.677998-9.100706-53.580404-5.858579-14.618008-13.252902-27.87091-21.898572-39.246792a254.250958 254.250958 0 0 0-27.984669-31.056157 281.496195 281.496195 0 0 1-26.335167-28.382825c-7.849358-9.6695-14.44737-20.590346-19.794034-32.421263-5.119147-11.375882-7.792479-18.087652-7.792479-35.094596v-8.076876H541.093818z m32.876298-130.424485a43.398989 43.398989 0 0 0-33.274454 13.878576 48.006221 48.006221 0 0 0-12.627229 33.72949c0 14.219852 4.322835 25.823252 12.797867 34.468922a44.479698 44.479698 0 0 0 33.103816 13.082264c13.537299 0 24.628784-4.379714 33.160696-13.082264 8.418153-8.588791 12.740988-20.19219 12.740987-34.468922a47.949342 47.949342 0 0 0-12.627229-33.72949 43.398989 43.398989 0 0 0-33.274454-13.878576z"  horiz-adv-x="1137" />

    
    <glyph glyph-name="yongyaoren" unicode="&#58921;" d="M505.344 373.4016a230.0416 230.0416 0 0 0-229.7856 229.7856A230.0416 230.0416 0 0 0 505.344 833.024a230.0416 230.0416 0 0 0 229.7856-229.7856 230.0416 230.0416 0 0 0-229.7856-229.7856m285.7472 229.7856A286.0544 286.0544 0 0 1 489.216 888.5248 285.7984 285.7984 0 0 1 219.648 603.7504c-0.2048-98.816 47.8208-188.5184 128.512-239.8208l15.872-10.0864-17.92-5.7856a496.7936 496.7936 0 0 1-238.7456-166.5024 505.5488 505.5488 0 0 1-107.2128-276.1728 27.2896 27.2896 0 0 1 7.3216-20.8384c5.3248-5.7344 12.8-9.0112 20.6336-9.0112a28.2624 28.2624 0 0 1 27.904 26.0096C73.984 134.7584 271.4112 317.44 505.344 317.44a286.0544 286.0544 0 0 1 285.7472 285.7472M763.5456 302.7456a30.0544 30.0544 0 0 0 60.1088 0v-170.2912h170.2912a30.0544 30.0544 0 0 0 0-60.1088h-170.3424l0.0512-170.2912a30.0544 30.0544 0 0 0-60.1088 0v170.2912h-170.2912a30.0544 30.0544 0 0 0 0 60.1088h170.2912v170.2912z"  horiz-adv-x="1024" />

    
    <glyph glyph-name="iconEguanyuwomen" unicode="&#58919;" d="M512 819.6096C271.872 819.6096 76.3904 624.1792 76.3904 384c0-240.2304 195.4304-435.712 435.6096-435.712 240.2304 0 435.6096 195.4816 435.6096 435.712 0 240.1792-195.3792 435.6096-435.6096 435.6096M512-128C229.6832-128 0 101.632 0 384 0 666.2656 229.6832 896 512 896c282.368 0 512-229.7344 512-512 0-282.368-229.632-512-512-512M515.8912 73.5232c-21.1968 0-38.4 14.592-38.4 32.6144V501.6576c0 18.0224 17.2032 32.6144 38.4 32.6144s38.4-14.592 38.4-32.6144v-395.52c0-18.0224-17.2032-32.6144-38.4-32.6144M515.8912 587.0592a55.552 55.552 0 0 0 0 111.0016A55.6032 55.6032 0 0 0 571.392 642.56c0-30.6176-24.8832-55.5008-55.5008-55.5008"  horiz-adv-x="1024" />

    
    <glyph glyph-name="iconEbanben" unicode="&#58920;" d="M473.7024 606.7712a47.4112 47.4112 0 0 1-47.4112-47.4112v-548.864c0-26.112 21.1968-47.4112 47.36-47.4112h368.3328a47.4112 47.4112 0 0 1 47.36 47.36V559.36a47.4112 47.4112 0 0 1-47.36 47.36H473.6zM473.6-115.6608a126.1056 126.1056 0 0 0-126.0544 126.0032V559.36A126.1056 126.1056 0 0 0 473.6 685.3632H841.728a126.1056 126.1056 0 0 0 126.1056-125.952v-548.9664a125.2864 125.2864 0 0 0-36.864-89.088A125.0816 125.0816 0 0 0 841.8304-115.6608H473.4976zM151.552 95.0272A126.1568 126.1568 0 0 0 25.6 221.0816V769.9968A126.1568 126.1568 0 0 0 151.552 896.0512h368.3328a126.1568 126.1568 0 0 0 125.952-125.952V661.0432a39.3728 39.3728 0 0 0-39.2192-39.3728 39.3728 39.3728 0 0 0-39.2704 39.424V769.9456a47.4624 47.4624 0 0 1-47.4624 47.36H151.552a47.4624 47.4624 0 0 1-47.4112-47.36v-548.864c0-26.2144 21.2992-47.4624 47.4112-47.4624h220.16a39.3728 39.3728 0 0 0 0-78.6432h-220.16z"  horiz-adv-x="1024" />

    
    <glyph glyph-name="iconerweima" unicode="&#58918;" d="M128 406.613333h361.386667V768H128v-361.386667z m90.368 271.018667h180.693333v-180.693333H218.368V677.632zM534.570667 768v-361.386667H896V768h-361.386667z m271.061333-271.061333h-180.693333V677.632h180.693333v-180.693333zM263.509333 542.122667h90.368V632.490667H263.509333v-90.368zM128 0h361.386667v361.386667H128V0z m90.368 271.061333h180.693333v-180.693333H218.368v180.693333z m542.122667 361.386667h-90.368v-90.325333h90.368V632.490667zM534.570667 0h90.368v90.368H534.613333V0z m90.368 271.061333v-180.693333h90.368v180.693333h-90.368z m180.693333-180.693333h-90.325333V0H896v180.693333h-90.368v-90.325333z m0 180.693333H896v90.368h-90.368v-90.368z m-271.061333 90.368v-90.368h90.368v90.368H534.613333z m-271.061334-225.92h90.368v90.368H263.509333v-90.368z"  horiz-adv-x="1024" />

    
    <glyph glyph-name="iconremen" unicode="&#58917;" d="M834.082133 426.8032a347.477333 347.477333 0 0 1-82.875733 115.165867l-29.0816 26.760533a8.055467 8.055467 0 0 1-12.970667-3.345067l-13.038933-37.2736c-8.123733-23.415467-23.005867-47.3088-44.100267-70.792533a6.280533 6.280533 0 0 0-4.096-2.048 5.461333 5.461333 0 0 0-4.3008 1.501867 5.870933 5.870933 0 0 0-2.048 4.778666c3.754667 60.279467-14.267733 128.136533-53.6576 202.069334-32.631467 61.44-77.892267 109.226667-134.485333 142.677333L412.125867 830.600533a7.9872 7.9872 0 0 1-12.014934-7.304533l2.184534-47.991467c1.501867-32.768-2.321067-61.781333-11.264-85.879466a285.149867 285.149867 0 0 0-47.035734-81.5104 295.594667 295.594667 0 0 0-47.5136-46.148267 352.597333 352.597333 0 0 1-100.283733-121.514667 347.7504 347.7504 0 0 1-8.465067-290.269866 351.368533 351.368533 0 0 1 187.392-185.617067c43.349333-18.158933 89.429333-27.306667 136.874667-27.306667a353.621333 353.621333 0 0 1 136.874667 27.306667 348.5696 348.5696 0 0 1 111.957333 74.615467 346.112 346.112 0 0 1 103.150933 246.920533c0 48.810667-9.966933 96.256-29.9008 140.9024z"  horiz-adv-x="1024" />

    
    <glyph glyph-name="dizhi" unicode="&#58916;" d="M512.750933-126.293333H512a65.1264 65.1264 0 0 0-47.104 20.138666 2549.623467 2549.623467 0 0 0-183.7056 219.136C163.84 270.7456 104.448 396.4928 104.448 486.8096A407.9616 407.9616 0 0 0 512 894.3616a407.9616 407.9616 0 0 0 407.552-407.552c0-54.613333-21.026133-121.514667-62.464-198.8608-39.936-74.478933-100.078933-161.109333-178.5856-257.365333l-0.682667-0.682667-116.9408-134.007467a64.170667 64.170667 0 0 0-48.128-22.186666zM512 832.989867A346.589867 346.589867 0 0 1 165.819733 486.8096c0-75.776 56.9344-192.375467 164.522667-337.237333a2529.757867 2529.757867 0 0 1 179.063467-213.4016c0.682667-0.682667 1.570133-1.160533 2.594133-1.160534h0.750933c0.273067 0 1.160533 0.341333 1.979734 1.297067l116.5312 133.5296c75.912533 93.047467 133.7344 176.128 171.758933 247.125333 36.590933 68.266667 55.159467 125.405867 55.159467 169.847467A346.589867 346.589867 0 0 1 512 832.9216zM512 295.936a191.010133 191.010133 0 0 0-190.737067 190.805333A191.010133 191.010133 0 0 0 512 677.546667a191.010133 191.010133 0 0 0 190.737067-190.737067A191.010133 191.010133 0 0 0 512 295.936z m0 320.170667c-71.338667 0-129.4336-58.026667-129.4336-129.365334 0-71.406933 58.026667-129.4336 129.4336-129.4336 71.338667 0 129.4336 58.026667 129.4336 129.4336C641.4336 558.08 583.406933 616.106667 512 616.106667z"  horiz-adv-x="1024" />

    
    <glyph glyph-name="dianhua" unicode="&#58915;" d="M240.741983 817.09144a113.559025 113.559025 0 0 1-21.184035-15.198954 328.076905 328.076905 0 0 1-47.801892-53.078212c-34.650465-47.093132-55.361993-94.895024-55.361993-128.04922 0-37.643005 25.200338-100.250096 69.458433-171.677305 45.833115-74.813505 109.778974-155.375836 179.867415-227.354303l23.231562-23.310313c71.978467-70.00969 152.619549-133.876798 227.1968-179.788664 71.50596-44.100592 134.113051-69.458433 171.834808-69.458433 33.075444 0 80.877336 20.711528 128.049219 55.361994 20.554026 15.120203 39.375529 32.209182 53.078213 47.801892 8.662616 10.080135 13.072676 17.088979 15.120203 21.262785-3.937553 7.717604-26.696608 37.24925-99.226332 87.256172a808.300854 808.300854 0 0 1-78.751058 48.274398 252.003384 252.003384 0 0 1-37.24925 16.773975l-1.653772 0.472507-4.331308-6.772591a290.748904 290.748904 0 0 1-15.435208-32.130432c-6.930093-15.828963-13.702684-31.657925-22.050296-44.336845-18.58525-28.27163-40.399292-34.177959-55.519495-34.177959-12.127663 0.236253-40.793048 0.787511-118.126586 53.550719a965.330462 965.330462 0 0 0-122.221642 99.383834c-33.784204 34.650465-71.190956 80.641083-99.85634 122.85165-52.920711 77.491041-53.550719 106.156425-53.629471 116.866569-0.393755 15.356456 5.19757 37.564254 33.784204 56.54326a285.078828 285.078828 0 0 0 44.100592 21.971545c12.048912 5.276321 23.782819 10.39514 32.681689 15.67146l6.300085 5.98508a236.725679 236.725679 0 0 1-16.773976 37.328002 797.511959 797.511959 0 0 1-48.195647 78.751057c-50.085673 72.450973-79.538568 95.28878-85.051142 99.147581l-1.023763 0.787511-1.260017-0.70876zM787.983081-127.763747c-66.938399 0-152.304545 43.94309-212.2341 80.798585-79.223564 48.904407-164.747212 116.551565-240.741983 190.498808l-24.176574 24.255326c-74.025994 75.99477-141.751903 161.439668-190.577559 240.820733C83.318619 468.460509 39.375529 553.826655 39.375529 620.765054c0 72.057218 50.951934 147.736984 72.844728 177.032377C134.270553 827.250327 191.36507 896 243.577021 896c22.837807 0 46.699377-14.17519 77.176036-45.675613 25.987849-26.932862 50.558179-60.165808 66.780897-83.161117 21.656541-30.949166 41.73806-63.31585 56.464508-91.351227 24.334077-46.069369 27.405368-66.229639 27.405368-78.672306 0-24.412828-12.363916-45.281858-36.855495-62.134584a289.803891 289.803891 0 0 0-50.006921-25.436592c-7.796355-3.465047-19.766515-8.662616-27.641622-12.915173 3.307544-14.17519 13.38768-34.886718 36.540491-68.670922 25.987849-38.351765 59.850804-80.011074 90.406214-111.432747 31.500423-30.55541 73.00223-64.339614 111.275244-90.327463 33.941706-23.152811 54.653234-33.154195 65.914635-37.564254 7.087595 9.056372 12.363916 21.262786 15.59271 28.586634a296.891487 296.891487 0 0 0 25.594093 50.164423c16.773975 24.412828 37.721757 36.855495 62.055834 36.855495 12.442667 0 32.602938-3.150042 78.672306-27.405368 27.956625-14.726448 60.402061-34.886718 91.351227-56.464508 23.07406-16.222718 56.228255-40.95055 83.003614-66.702146 31.657925-30.55541 45.833115-54.33823 45.833116-77.254787 0-52.211951-68.670922-109.227717-98.202569-131.514266-29.137891-21.735292-104.97516-72.687226-176.953626-72.687226z"  horiz-adv-x="1102" />

    
    <glyph glyph-name="sanjiaoxing" unicode="&#58914;" d="M128 384l768 512v-1024z"  horiz-adv-x="1024" />

    
    <glyph glyph-name="iconarrow_up" unicode="&#58913;" d="M714.77911513 559.82254324L1146.91513648 89.70661270999994a37.67444132 37.67444132 0 0 1 53.66062286 0l13.74607993 14.96795376a45.82026602 45.82026602 0 0 1 0 58.03900365L742.47492042 678.24247578a37.67444132 37.67444132 0 0 1-53.76244528 0L216.86555631 165.46278622a45.82026602 45.82026602 0 0 1 0-58.03900365l13.74607991-14.96795375a37.67444132 37.67444132 0 0 1 53.66062286 0l430.50685605 467.36671442z"  horiz-adv-x="1706" />

    
    <glyph glyph-name="dingwei" unicode="&#58912;" d="M507.968 864a380.48 380.48 0 0 0 380.096-380.032c0-204.672-362.24-538.304-365.888-541.632l-14.208-12.992-14.208 12.992C478.848-44.032 128 279.04 128 483.968A380.416 380.416 0 0 0 507.968 864z m0-60.736A323.2 323.2 0 0 1 185.152 480.384c0-162.88 284.608-438.784 317.056-469.76l7.104-6.72 4.416 6.72c32.448 30.976 317.184 306.688 317.184 469.76a323.328 323.328 0 0 1-322.944 322.88z m0-141.44a161.92 161.92 0 0 0 161.792-161.856 161.92 161.92 0 0 0-161.792-161.728 161.92 161.92 0 0 0-161.792 161.728A161.92 161.92 0 0 0 507.968 661.76z m0-60.8a101.12 101.12 0 0 1-101.056-101.056 101.12 101.12 0 0 1 202.112 0 101.12 101.12 0 0 1-101.056 101.12z"  horiz-adv-x="1024" />

    
    <glyph glyph-name="iconEfuli" unicode="&#58895;" d="M1146.688 140.992l-0.192-153.792-1013.12-0.32v154.112c115.52 23.04 202.688 123.2 202.688 242.944-0.192 117.76-84.8 219.328-202.688 243.072L133.568 780.8l1013.12 0.32v-154.112c-117.888-23.68-202.496-125.184-202.688-243.008 0.192-117.76 84.8-219.264 202.688-243.008z m50.624 391.808h50.688v248.32C1247.808 835.84 1202.432 880.064 1146.496 880H133.504C77.632 880.128 32.192 835.84 32 781.12v-248.32h50.688c83.84 0 152-66.688 152-148.8 0-82.048-68.16-148.8-152-148.8H32v-248.32c0.128-54.656 45.504-98.944 101.44-98.88h1012.992c55.936-0.064 101.312 44.16 101.504 98.88v248.32h-50.688c-83.776 0-152 66.752-152 148.8 0 82.112 68.224 148.8 152 148.8zM792 364.16a35.072 35.072 0 0 1 35.456 34.688c0 19.2-15.872 34.752-35.456 34.752h-101.888l0.32 0.256 101.312 99.2a34.24 34.24 0 0 1 9.216 33.536 35.072 35.072 0 0 1-25.088 24.576 35.968 35.968 0 0 1-34.24-8.96l-101.376-99.2L640 482.56l-0.256 0.384-101.312 99.2a36.032 36.032 0 0 1-50.176 0 34.24 34.24 0 0 1 0-49.152l101.376-99.2 0.32-0.256H488a35.584 35.584 0 0 1-30.72-17.344 34.112 34.112 0 0 1 0-34.752 35.584 35.584 0 0 1 30.72-17.344h116.544v-79.36h-116.48a35.584 35.584 0 0 1-30.72-17.344 34.112 34.112 0 0 1 0-34.752 35.584 35.584 0 0 1 30.72-17.344h116.48v-29.76c0-19.2 15.872-34.688 35.456-34.688a35.072 35.072 0 0 1 35.52 34.688v29.76h116.48c12.672 0 24.384 6.592 30.72 17.344a34.112 34.112 0 0 1 0 34.752 35.584 35.584 0 0 1-30.72 17.344h-116.48V364.16h116.48z"  horiz-adv-x="1280" />

    
    <glyph glyph-name="iconEdingdan" unicode="&#58900;" d="M134.9632-18.1248L134.656 743.5264h126.0544v-41.8816c0-46.848 37.4784-84.992 83.6096-84.992h335.4624a84.4288 84.4288 0 0 1 83.6096 84.992v41.8816l125.696 0.3072 0.3072-761.6512-754.3808-0.3072zM679.5776 785.408l0.1536-84.1728-335.3088 0.4096V785.408l-0.1536 0.4096 335.3088-0.4096z m209.2544 42.7008h-137.216A83.0464 83.0464 0 0 1 679.7312 870.4H344.2688c-30.72 0-57.344-17.1008-71.8848-42.2912H134.6048C88.5248 828.0576 51.2 790.3744 51.2 743.8336v-761.9584A83.968 83.968 0 0 1 134.656-102.4h754.688A83.968 83.968 0 0 1 972.8-18.1248V743.8336a84.1728 84.1728 0 0 1-83.968 84.2752z m-236.6464-355.6864l-198.656-219.2384-81.3056 92.0064a41.6256 41.6256 0 0 1-59.1872 3.3792 42.5984 42.5984 0 0 1-3.328-59.7504l112.1792-126.8736a41.728 41.728 0 0 1 31.0272-14.1312h0.2048c11.776 0 22.9888 5.0176 30.9248 13.7728l229.9392 253.7472a42.5984 42.5984 0 0 1-2.6112 59.7504 41.6256 41.6256 0 0 1-59.1872-2.6624z"  horiz-adv-x="1024" />

    
    <glyph glyph-name="iconEchengyuan" unicode="&#58910;" d="M983.578947-9.431579a3.125895 3.125895 0 0 0-1.886315-0.862316L256-8.569263v149.126737c0 7.329684 7.599158 18.863158 15.306105 21.989052C273.246316 163.354947 469.423158 249.263158 619.789474 249.263158c149.989053 0 346.543158-85.908211 349.722947-87.309474 6.575158-2.586947 14.066526-14.066526 14.066526-21.450105V-9.431579zM499.119158 500.951579V633.209263a141.581474 141.581474 0 0 0 141.20421 141.527579A141.473684 141.473684 0 0 0 781.473684 633.155368V500.951579a141.473684 141.473684 0 0 0-141.150316-141.581474 141.473684 141.473684 0 0 0-141.20421 141.581474z m501.76-264.353684c-6.251789 2.694737-116.951579 50.984421-241.232842 77.069473A222.315789 222.315789 0 0 1 862.315789 500.951579V633.209263A222.423579 222.423579 0 0 1 640.323368 855.578947a222.477474 222.477474 0 0 1-222.046315-222.423579V500.951579c0-74.698105 37.079579-140.773053 93.615158-181.086316-136.623158-23.659789-266.24-80.195368-272.276211-82.890105-36.702316-15.144421-64.458105-56.589474-64.458105-96.471579v-159.690105h0.700631c5.389474-41.121684 40.528842-71.949474 82.02779-71.949474h723.806316a85.692632 85.692632 0 0 1 80.572631 59.068632l2.15579 6.251789v166.426947c0 40.151579-27.809684 81.650526-63.488 95.932632zM347.459368 333.338947c1.293474 0 2.479158-0.377263 3.772632-0.377263a40.421053 40.421053 0 1 1 0 80.842105 86.824421 86.824421 0 0 0-86.716632 86.878316V607.124211c0 47.804632 38.912 86.770526 86.770527 86.770526a40.421053 40.421053 0 0 1 0 80.842105 167.774316 167.774316 0 0 1-167.612632-167.666526v-106.442105c0-41.337263 15.629474-78.740211 40.528842-108.058948a872.232421 872.232421 0 0 1-161.145263-70.063158c-28.887579-13.635368-49.529263-46.349474-49.529263-78.848v-116.089263a40.421053 40.421053 0 1 1 80.842105 0v115.873684a14.443789 14.443789 0 0 0 2.964211 5.928421 36.648421 36.648421 0 0 1 4.527158 2.263579c38.426947 22.420211 156.402526 80.464842 239.669894 80.464842 2.048 0 3.934316 0.916211 5.928421 1.239579z"  horiz-adv-x="1077" />

    
    <glyph glyph-name="iconEshezhi" unicode="&#58911;" d="M929.795584 296.5504a169.3696 169.3696 0 0 1-122.2144-83.712 170.496 170.496 0 0 1-11.264-147.8144 425.0112 425.0112 0 0 0-150.9376-87.552A169.2672 169.2672 0 0 1 512.003584 41.7792a169.472 169.472 0 0 1-133.4272-64.1536 425.3696 425.3696 0 0 0-150.9376 87.4496 170.496 170.496 0 0 1-11.264 147.8144 169.3696 169.3696 0 0 1-122.1632 83.712 433.2544 433.2544 0 0 0 0 174.848 169.472 169.472 0 0 1 122.2144 83.712c26.112 44.9536 30.208 99.4304 11.2128 147.8144a425.0112 425.0112 0 0 0 150.9376 87.552A169.472 169.472 0 0 1 512.003584 726.2208c52.9408 0 101.376 23.9616 133.376 64.256 55.808-18.432 107.2128-48.2304 150.9376-87.552-18.944-48.384-14.848-102.8608 11.264-147.8144a169.472 169.472 0 0 1 122.1632-83.712 431.0016 431.0016 0 0 0 0-174.848m74.9056 227.6864a42.3936 42.3936 0 0 1-43.776 31.0272 84.736 84.736 0 0 0-79.36 42.5984 85.4016 85.4016 0 0 0 2.816 90.2656 42.8544 42.8544 0 0 1-4.9152 53.4016A510.8736 510.8736 0 0 1 637.136384 881.92a42.5984 42.5984 0 0 1-48.64-22.528c-14.336-29.2352-44.032-47.7184-76.4928-47.616a84.8896 84.8896 0 0 0-76.4928 47.616 42.6496 42.6496 0 0 1-48.64 22.528 510.72 510.72 0 0 1-242.2784-140.3392 42.8544 42.8544 0 0 1-4.9152-53.504c18.0224-27.0336 19.1488-62.0544 2.816-90.2144a84.8384 84.8384 0 0 0-79.36-42.5984 42.0352 42.0352 0 0 1-43.776-31.0272A513.536 513.536 0 0 1 0.003584 384c0-47.616 6.5024-94.8224 19.3536-140.1856a42.5472 42.5472 0 0 1 43.776-31.0272 85.2992 85.2992 0 0 0 79.36-42.6496c16.3328-28.3136 15.2576-62.9248-2.816-90.2144a42.8544 42.8544 0 0 1 4.9152-53.4016 510.208 510.208 0 0 1 242.2784-140.288 42.496 42.496 0 0 1 48.64 22.4256c14.336 29.184 44.032 47.6672 76.4928 47.5648 32.6656 0 61.952-18.2272 76.4928-47.616 8.9088-18.0224 29.184-27.392 48.64-22.4768a510.4128 510.4128 0 0 1 242.2784 140.3904 42.8544 42.8544 0 0 1 4.9152 53.4528 85.3504 85.3504 0 0 0-2.816 90.112 84.1216 84.1216 0 0 0 79.36 42.7008 42.8544 42.8544 0 0 1 43.776 31.0272c12.8512 45.568 19.3536 92.7744 19.3536 140.2368 0 47.616-6.5536 94.8224-19.3536 140.288M512.003584 255.6416a128.3584 128.3584 0 0 0 0 256.6656 128.3584 128.3584 0 0 0 0-256.6656m0 342.2208A213.8112 213.8112 0 0 1 298.653184 384 213.8624 213.8624 0 0 1 512.003584 170.0864 213.9136 213.9136 0 0 1 725.353984 384 213.8112 213.8112 0 0 1 512.003584 597.8624"  horiz-adv-x="1024" />

    
    <glyph glyph-name="fenxiang" unicode="&#58894;" d="M944.241778 394.410667a39.310222 39.310222 0 0 1-39.310222-39.367111v-366.535112H117.191111V776.248889h360.277333a39.310222 39.310222 0 1 1 0 78.677333H117.191111a106.951111 106.951111 0 0 1-33.564444-4.778666l19.569777-59.904L83.626667 850.147556a60.188444 60.188444 0 0 1-40.391111-40.391112 106.951111 106.951111 0 0 1-4.835556-33.621333v-787.740444c0-12.8 1.592889-24.007111 4.778667-33.735111 6.712889-20.138667 20.138667-33.735111 40.391111-40.277334l19.626666 59.904-19.569777-59.904c9.671111-3.185778 20.935111-4.778667 33.564444-4.778666h787.740445c12.8 0 24.007111 1.592889 33.735111 4.778666l-19.626667 59.904 19.626667-59.904c20.252444 6.542222 33.735111 20.138667 40.391111 40.277334 3.185778 9.728 4.835556 20.935111 4.835555 33.735111V354.986667a39.594667 39.594667 0 0 1-39.651555 39.480889zM979.057778 809.870222a60.188444 60.188444 0 0 1-40.391111 40.391111l-19.626667-59.847111L938.666667 850.261333a107.804444 107.804444 0 0 1-33.735111 4.778667h-199.623112a39.310222 39.310222 0 1 1 0-78.620444h130.844445l-377.173333-377.344a39.253333 39.253333 0 0 1 27.818666-67.185778 39.822222 39.822222 0 0 1 27.875556 11.434666L904.533333 733.3546670000001c0.113778 0.113778 0.113778 0.398222 0.398223 0.512v-163.214223a39.424 39.424 0 0 1 78.791111 0V776.248889c0 12.8-1.592889 24.007111-4.664889 33.564444z"  horiz-adv-x="1024" />

    
    <glyph glyph-name="delete" unicode="&#58891;" d="M684.288 268.288a40 40 0 0 0-56.576-56.576L504 335.424l-123.712-123.712a39.872 39.872 0 0 0-56.576 0 40 40 0 0 0 0 56.576l123.712 123.712-123.712 123.712a40 40 0 0 0 56.576 56.576l123.712-123.712 123.712 123.712a40 40 0 0 0 56.576-56.576L560.576 392l123.712-123.712zM512 864C247.36 864 32 648.64 32 384c0-264.704 215.36-480 480-480 264.704 0 480 215.296 480 480C992 648.64 776.704 864 512 864z"  horiz-adv-x="1024" />

    
    <glyph glyph-name="tianxie" unicode="&#58889;" d="M1022.890667-49.237333c0-47.274667-31.445333-78.762667-78.677334-78.762667H78.677333C31.488-128 0-96.512 0-49.237333V817.237333C0 864.512 31.488 896 78.677333 896h550.826667v-78.762667H78.634667v-866.474666H944.213333V502.186667h78.677334v-551.381334z m-267.52 827.093333l149.504-141.781333-393.386667-401.749334-141.653333-23.594666c-15.786667 0-31.488 15.744-31.488 31.488L361.941333 384l393.429334 393.813333z m251.818666-55.125333L959.957333 675.413333 810.453333 825.173333 857.642667 872.405333c23.637333 23.594667 70.826667 23.594667 94.421333 0l47.232-47.274666c31.488-23.68 31.488-70.912 7.893333-102.4z"  horiz-adv-x="1024" />

    
    <glyph glyph-name="xiangji" unicode="&#58890;" d="M883.273143 545.8895239999999a50.029714 50.029714 0 0 0 0 100.059428 50.029714 50.029714 0 0 0 0-100.010666z m-296.96-67.486476a150.040381 150.040381 0 0 1 0-300.080762c82.553905 0 149.74781 67.291429 149.747809 150.040381 0 81.334857-68.559238 150.040381-149.699047 150.040381z m0-400.091429c-137.508571 0-249.465905 112.201143-249.465905 250.051048 0 137.898667 111.908571 250.051048 249.514667 250.051047 137.557333 0 249.514667-112.152381 249.514666-250.051047 0-137.849905-111.957333-250.051048-249.514666-250.051048zM149.699048 685.933714c-27.501714 0-49.883429-21.308952-49.883429-47.494095v-616.399238c0-26.233905 22.430476-47.494095 49.883429-47.494095h873.325714c27.452952 0 49.883429 21.26019 49.883428 47.494095V635.952762c0 26.185143-22.430476 47.494095-49.93219 47.494095h-192.121905c-19.943619 0-39.497143 12.824381-46.470095 30.378667l-19.943619 47.299047c-7.94819 22.040381-25.014857 34.864762-45.836191 34.864762H451.632762c-21.308952 0-39.984762-12.824381-45.494857-31.110095l-20.382476-48.761905c-5.948952-17.944381-24.33219-30.183619-46.421334-30.183619H149.699048zM149.699048-128C67.145143-128 0-61.83009500000003 0 19.55352400000004V635.904c0 81.432381 67.145143 147.553524 149.699048 147.553524h158.72l6.826666 17.16419C336.944762 857.575619 391.801905 896 451.681524 896h264.484571c60.854857 0 116.638476-37.302857 138.825143-92.891429l6.826667-17.115428h158.72c82.553905 0 149.699048-66.169905 149.699047-147.553524v-616.399238a143.701333 143.701333 0 0 0-40.326095-105.033143 149.211429 149.211429 0 0 0-106.886095-45.007238H149.699048z"  horiz-adv-x="1170" />

    
    <glyph glyph-name="jiaocheng" unicode="&#58909;" d="M512-128a512 512 0 1 1 0 1024 512 512 0 0 1 0-1024z m0 64.030118a448.030118 448.030118 0 1 0 0 896 448.030118 448.030118 0 0 0 0-896.060236zM475.437176 248.28988200000003c-0.240941 9.035294-0.361412 15.781647-0.361411 20.299294 0 26.503529 3.734588 49.392941 11.264 68.608 5.421176 14.456471 14.336 29.093647 26.624 43.851295 8.975059 10.782118 25.178353 26.503529 48.549647 47.104 23.371294 20.600471 38.550588 37.044706 45.537882 49.27247a79.510588 79.510588 0 0 1 10.541177 40.116706c0 26.262588-10.24 49.392941-30.780236 69.210353a104.207059 104.207059 0 0 1-75.354353 29.816471c-28.792471 0-52.766118-9.035294-72.041411-26.985412-19.275294-18.070588-31.864471-46.140235-37.827765-84.389647l-69.391059 8.252235c6.264471 51.2 24.816941 90.473412 55.657412 117.76 30.900706 27.226353 71.68 40.839529 122.458353 40.839529 53.729882 0 96.617412-14.576941 128.602353-43.851294 32.045176-29.274353 48.007529-64.632471 48.007529-106.134588 0-23.973647-5.601882-46.140235-16.865882-66.379294-11.264-20.239059-33.249882-44.875294-66.017883-73.848471-21.985882-19.516235-36.321882-33.912471-43.12847-43.12847-6.746353-9.276235-11.745882-19.877647-14.998588-31.924706-3.252706-11.986824-5.12-31.442824-5.601883-58.428235H475.437176zM471.341176 112.94117600000004v76.860236H548.141176V112.94117600000004H471.341176z"  horiz-adv-x="1024" />

    
    <glyph glyph-name="point-record" unicode="&#58905;" d="M700.672 896H191.552A127.616 127.616 0 0 1 64.256 768v-768c0-70.656 56.96-128 127.296-128h636.352a127.616 127.616 0 0 1 127.296 128V640L700.672 896z m190.912-896c0-35.328-28.544-64-63.68-64H191.552a63.808 63.808 0 0 0-63.616 64V768c0 35.328 28.48 64 63.616 64h412.736c-0.576-76.672 0.896-192 0.896-192 0-70.72 56.96-96 127.296-96h159.04V0z m-159.104 608a63.808 63.808 0 0 0-63.68 64V832l222.72-224h-159.04zM700.672 352H318.848a31.936 31.936 0 0 1-31.872-32c0-17.728 14.272-32 31.872-32h381.824a31.936 31.936 0 0 1 31.808 32c0 17.664-14.272 32-31.808 32z m0-160H318.848a31.936 31.936 0 0 1-31.872-32c0-17.664 14.272-32 31.872-32h381.824a31.936 31.936 0 0 1 31.808 32c0 17.664-14.272 32-31.808 32z"  horiz-adv-x="1024" />

    
    <glyph glyph-name="shaixuan" unicode="&#58907;" d="M427.279445-128c-8.499141 0-16.998281 4.30077-21.299051 4.30077a50.892444 50.892444 0 0 0-21.299051 38.399731V285.897903L9.49037 827.69251A45.77248 45.77248 0 0 0 5.1896 874.693781 44.748487 44.748487 0 0 0 43.589331 895.992832h937.977434c16.998281 0 29.798191-8.499141 38.399731-21.299051 8.499141-12.79991 4.198371-29.900591-4.30077-42.700501L640.474753 285.897903V-0.000896c0-17.10068-8.499141-29.900591-25.599821-38.399731l-170.494807-85.298603C440.079356-128 435.778586-128 427.279445-128z"  horiz-adv-x="1024" />

    
    <glyph glyph-name="jifen" unicode="&#58908;" d="M776.32 234.176h77.056v-55.04h-103.36v-48.128h103.36v-55.296h-103.36v-82.816h-55.296v82.56H591.552v55.68h103.168v48H591.552v55.04h71.168l-57.6 94.592 47.104 28.672 66.688-109.696 73.536 112.64 45.952-30.08zM926.08 399.744a13.312 13.312 0 0 1 0 3.072V706.56a38.912 38.912 0 0 1-0.448 7.488C916.544 833.024 689.92 895.04 465.792 895.04S14.784 832.96 5.76 714.112a38.912 38.912 0 0 1-0.384-7.488v-610.944c0-123.84 231.552-188.416 460.544-188.416 31.232 0 62.464 1.152 92.8 3.712a308.672 308.672 0 0 1 367.296 488.832l0.128-0.064zM466.048 825.088c238.272 0 390.336-70.208 390.336-118.528 0-48.32-152.064-118.4-390.4-118.4-238.272 0-390.528 70.08-390.528 118.4 0 48.32 152 118.528 390.592 118.528zM75.392 601.984c85.76-55.232 238.784-83.712 390.592-83.712 151.744 0 304.576 28.48 390.336 83.712v-150.08a305.792 305.792 0 0 1-147.84 37.76 308.8 308.8 0 0 1-290.304-204.288c-212.928 8.64-342.784 72.768-342.784 117.504V601.984z m390.592-624.64c-238.592 0-390.592 70.144-390.592 118.4V299.456a722.752 722.752 0 0 1 326.464-83.392 308.48 308.48 0 0 1 74.624-238.592l-10.496-0.128z m242.496-35.2a238.784 238.784 0 1 0 238.784 238.72 239.04 239.04 0 0 0-238.72-238.912l-0.064 0.128z"  horiz-adv-x="1024" />

    
    <glyph glyph-name="POSji" unicode="&#58903;" d="M767.455681 761.056169l-32.44796-819.198976A110.591862 110.591862 0 0 0 631.87185-127.99872000000005H168.960429c-59.647925-0.032-108.607864 46.879941-110.591862 106.047867L33.088599 744.960189a145.599818 145.599818 0 0 0 41.439948 106.527867A148.031815 148.031815 0 0 0 180.480414 896h439.871451c77.055904 0.032 141.119824-58.751927 147.103816-134.943831z m22.143972-523.327346l11.039986 307.199616h115.903855V640.00032h-112.447859l3.999995 109.727863h108.479864a73.439908 73.439908 0 0 0 73.727908-73.151909v-365.727543a73.439908 73.439908 0 0 0-73.759908-73.119908h-126.943841z m-241.727698 58.495927c0.064-13.695983 5.567993-26.783967 15.263981-36.479955 9.663988-9.599988 22.815971-14.943981 36.351955-14.783981a50.559937 50.559937 0 0 1 36.351954 14.783981c9.759988 9.695988 15.231981 22.783972 15.263981 36.479955a51.711935 51.711935 0 0 1-15.263981 36.415954c-9.599988 9.599988-22.719972 14.911981-36.351954 14.783982a50.719937 50.719937 0 0 1-36.351955-14.783982 51.711935 51.711935 0 0 1-15.263981-36.415954z m-195.391756 0c0.032-13.695983 5.535993-26.783967 15.263981-36.479955 9.599988-9.599988 22.719972-14.943981 36.351955-14.783981a50.559937 50.559937 0 0 1 36.351954 14.783981c9.759988 9.695988 15.231981 22.783972 15.263981 36.479955a51.711935 51.711935 0 0 1-15.263981 36.415954c-9.599988 9.599988-22.719972 14.911981-36.351954 14.783982a50.719937 50.719937 0 0 1-36.351955-14.783982 51.711935 51.711935 0 0 1-15.263981-36.415954z m-195.359755 0c0-13.695983 5.503993-26.783967 15.231981-36.479955 9.695988-9.599988 22.783972-14.943981 36.351954-14.783981 13.663983-0.16 26.751967 5.183994 36.383955 14.783981 9.727988 9.695988 15.199981 22.783972 15.231981 36.479955a51.711935 51.711935 0 0 1-15.231981 36.415954c-9.599988 9.599988-22.719972 14.911981-36.383955 14.783982a50.719937 50.719937 0 0 1-36.351954-14.783982 51.711935 51.711935 0 0 1-15.231981-36.415954zM547.839955 76.80102399999998c0.064-13.695983 5.567993-26.815966 15.263981-36.479954 9.663988-9.599988 22.815971-14.943981 36.351955-14.783982 13.663983-0.16 26.783967 5.183994 36.351954 14.751982 9.759988 9.695988 15.231981 22.815971 15.263981 36.511954a51.711935 51.711935 0 0 1-15.263981 36.415954c-9.599988 9.599988-22.719972 14.911981-36.351954 14.783982a50.719937 50.719937 0 0 1-36.351955-14.783982 51.711935 51.711935 0 0 1-15.263981-36.415954z m-195.391756 0c0.032-13.695983 5.535993-26.815966 15.263981-36.479954 9.599988-9.599988 22.719972-14.943981 36.351955-14.783982 13.663983-0.16 26.783967 5.183994 36.351954 14.751982 9.759988 9.695988 15.231981 22.815971 15.263981 36.511954a51.711935 51.711935 0 0 1-15.263981 36.415954c-9.599988 9.599988-22.719972 14.911981-36.351954 14.783982a50.719937 50.719937 0 0 1-36.351955-14.783982 51.711935 51.711935 0 0 1-15.263981-36.415954z m-180.127774 36.415954A51.711935 51.711935 0 0 1 157.120444 76.80102399999998c0-13.695983 5.503993-26.815966 15.231981-36.479954 9.695988-9.599988 22.783972-14.943981 36.351954-14.783982 13.663983-0.16 26.751967 5.183994 36.383955 14.751982 9.727988 9.695988 15.199981 22.815971 15.231981 36.511954a51.711935 51.711935 0 0 1-15.231981 36.415954c-9.599988 9.599988-22.719972 14.911981-36.383955 14.783982a50.719937 50.719937 0 0 1-36.351954-14.783982z m43.743945 636.479205A73.439908 73.439908 0 0 1 142.400462 676.6082739999999v-146.303817a73.439908 73.439908 0 0 1 73.727908-73.119908h368.639539a73.439908 73.439908 0 0 1 73.759908 73.119908V676.576274c0 19.391976-7.77599 38.015952-21.599973 51.711936a74.047907 74.047907 0 0 1-52.159935 21.439973H216.09637v-0.032z"  horiz-adv-x="1024" />

    
    <glyph glyph-name="weixin" unicode="&#58906;" d="M385.024 511.008V895.424H0.576V511.04h69.92v-69.92h69.888V511.04h244.64z m-314.56 69.888V825.5360000000001h244.672v-244.64H70.496zM140.384 755.648h104.832v-104.864H140.384V755.648zM979.168 895.424H594.72V511.04h384.448V895.424z m-69.92-314.528H664.64V825.5360000000001h244.64v-244.64zM734.528 755.648h104.832v-104.864h-104.832zM0.576 441.088h69.92V371.20000000000005H0.576v69.888zM140.384 441.088H210.24V371.20000000000005H140.384v69.888zM280.192 371.20000000000005H210.24v-69.888H0.576v-384.448h384.448V301.312H280.192V371.20000000000005z m34.944-139.808v-244.64H70.496v244.64h244.64zM140.384 161.50400000000002h104.832v-104.832H140.384v104.832zM454.912 860.48h69.92v-104.832h-69.92zM454.912 685.76h69.92v-69.92h-69.92V685.76zM454.912 545.9200000000001h69.92v-104.832h-69.92v104.864zM280.192 441.088h174.72V371.20000000000005h-174.72v69.888zM789.056 162.11199999999997c-6.848 0-13.792-6.944-13.792-13.792 0-6.976 6.944-13.792 13.76-13.792 10.496 0 17.28 6.816 17.28 13.76 0 6.88-6.784 13.824-17.28 13.824zM647.68 262.17600000000004c-10.368 0-20.8-6.848-20.8-17.216 0-10.336 10.432-17.28 20.8-17.28 10.336 0 17.216 6.944 17.216 17.28 0 10.4-6.88 17.216-17.248 17.216zM732.416 452.544a288.384 288.384 0 1 1 0-576.736 288.384 288.384 0 0 1 0 576.736z m-45.696-368.64c-17.536 0-31.616 3.552-49.152 7.008l-49.088-24.608 14.048 42.24c-35.168 24.576-56.192 56.224-56.192 94.784 0 66.784 63.2 119.36 140.384 119.36 69.024 0 129.504-42.016 141.632-98.56a123.648 123.648 0 0 1-13.568 0.832c-66.656 0-119.296-49.792-119.328-111.104 0-10.24 1.6-20.064 4.352-29.44-4.32-0.32-8.672-0.544-13.088-0.544z m207.04-49.216l10.56-35.104-38.496 21.12c-14.048-3.52-28.16-7.04-42.112-7.04-66.784 0-119.392 45.6-119.392 101.888 0 56.096 52.576 101.856 119.36 101.856 63.104 0 119.264-45.76 119.264-101.856 0-31.68-21.024-59.712-49.184-80.864zM744.192 227.712c10.432 0 17.28 6.912 17.28 17.248 0 10.368-6.848 17.216-17.28 17.216-10.336 0-20.672-6.816-20.672-17.216 0-10.336 10.368-17.28 20.672-17.28zM864.96 162.11199999999997c-6.848 0-13.76-6.944-13.76-13.792 0-6.976 6.944-13.792 13.76-13.792 10.336 0 17.248 6.816 17.248 13.76 0 6.88-6.912 13.824-17.28 13.824z"  horiz-adv-x="1024" />

    
    <glyph glyph-name="refute" unicode="&#58904;" d="M281.307429 608.987429a35.693714 35.693714 0 0 0 0 71.338666h379.66019c19.651048 0 35.693714-15.993905 35.693714-35.693714a35.742476 35.742476 0 0 0-35.693714-35.596191H281.307429z m0-232.106667a35.693714 35.693714 0 0 0 0 71.289905h379.66019c19.651048 0 35.693714-15.993905 35.693714-35.693715a35.742476 35.742476 0 0 0-35.693714-35.59619H281.307429z m0-217.575619a35.693714 35.693714 0 0 0 0 71.387428h179.297523a35.693714 35.693714 0 0 0 0-71.387428H281.307429z m-118.00381-266.873905a139.02019 139.02019 0 0 0-138.971429 138.825143V757.126095A139.02019 139.02019 0 0 0 163.352381 895.951238h617.618286a138.971429 138.971429 0 0 0 138.873904-138.825143v-325.095619a36.08381 36.08381 0 0 0-72.167619 0V757.126095a66.80381 66.80381 0 0 1-66.706285 66.706286H163.303619c-36.815238 0-66.80381-29.93981-66.803809-66.706286v-725.869714c0-36.766476 29.988571-66.706286 66.803809-66.706286h315.489524a36.376381 36.376381 0 0 0 34.864762-36.083809 36.08381 36.08381 0 0 0-36.132572-36.08381l-314.221714 0.048762zM885.51619-9.606094999999982c-30.72-30.817524-71.68-47.737905-115.175619-47.737905a161.596952 161.596952 0 0 0-115.224381 47.786667 162.084571 162.084571 0 0 0-47.786666 115.321904c0 43.593143 16.969143 84.553143 47.786666 115.370667 30.72 30.72 71.68 47.689143 115.224381 47.689143 43.495619 0 84.455619-16.969143 115.175619-47.786667 30.817524-30.817524 47.786667-71.68 47.786667-115.370666 0-43.593143-16.969143-84.455619-47.786667-115.273143M770.340571 319.04914299999996A213.23581 213.23581 0 0 1 557.153524 105.61828600000001 213.23581 213.23581 0 0 1 770.340571-107.617524 213.23581 213.23581 0 0 1 983.527619 105.66704800000002 213.23581 213.23581 0 0 1 770.438095 319.04914299999996M602.745905 230.30247599999996l291.108571-284.184381 34.03581 34.864762-291.108572 284.233143z"  horiz-adv-x="1024" />

    
    <glyph glyph-name="finish" unicode="&#58897;" d="M512 896a512 512 0 1 1 0-1024A512 512 0 0 1 512 896z m-0.227556-942.421333a428.657778 428.657778 0 1 0 0 857.315555 428.657778 428.657778 0 0 0 0-857.315555zM718.222222 526.222222l-263.168-247.694222-149.333333 140.515556-49.720889-46.762667L455.111111 184.88888899999995l49.720889 46.762667L768 479.345778l-49.777778 46.876444z"  horiz-adv-x="1024" />

    
    <glyph glyph-name="payment" unicode="&#58898;" d="M722.135579 340.237474a66.506105 66.506105 0 0 0-66.128842 66.775579c0 36.810105 29.642105 66.829474 66.128842 66.829473 36.432842 0 66.128842-30.019368 66.128842-66.829473 0-36.810105-29.696-66.775579-66.128842-66.775579z m-107.358316 174.942315c-14.389895 0-23.336421-9.108211-23.336421-23.713684v-174.888421c0-14.605474 8.946526-23.659789 23.336421-23.659789h399.090526V515.179789h-399.090526zM185.397895 822.757053c-62.248421 0-112.855579-51.253895-112.855579-114.202948v-603.082105c0-62.949053 50.607158-114.149053 112.855579-114.149053h715.66821c62.194526 0 112.801684 51.2 112.801684 114.149053V219.62105299999996h-399.090526c-51.092211 0-95.932632 45.325474-95.932631 96.956631V491.466105c0 51.631158 44.840421 96.902737 95.932631 96.902737h399.090526v120.185263c0 62.949053-50.607158 114.202947-112.801684 114.202948H185.397895z m0-904.677053C79.710316-81.91999999999996 0-1.3473679999999604 0 105.47199999999998V708.5541049999999C0 815.373474 79.710316 896 185.397895 896h715.66821c102.184421 0 185.344-84.129684 185.344-187.445895v-603.082105c0-106.819368-79.656421-187.392-185.344-187.392H185.397895z"  horiz-adv-x="1131" />

    
    <glyph glyph-name="wait" unicode="&#58899;" d="M512 283.93244400000003a41.187556 41.187556 0 0 0-41.244444 41.130667v235.52a41.244444 41.244444 0 0 0 82.488888 0V366.36444400000005h193.991112a41.244444 41.244444 0 0 0 0.113777-82.375111H511.886222z m0 522.808889c-112.867556 0-219.022222-43.918222-298.666667-123.619555A419.783111 419.783111 0 0 1 89.315556 384.170667c0-112.924444 44.032-219.079111 123.960888-298.894223A418.816 418.816 0 0 1 512-38.513778a418.929778 418.929778 0 0 1 298.723556 123.790222 419.441778 419.441778 0 0 1 123.790222 298.666667 419.612444 419.612444 0 0 1-123.847111 298.951111A418.759111 418.759111 0 0 1 512 806.7413329999999zM512-128c-282.282667 0-512 229.660444-512 511.943111C0 666.282667 229.717333 896 512 896c282.339556 0 512-229.717333 512-512.056889C1024 101.66044399999998 794.339556-128 512-128z"  horiz-adv-x="1024" />

    
    <glyph glyph-name="shipped" unicode="&#58901;" d="M1010.526316 355.974737V455.626105c0 29.318737-12.395789 57.397895-34.115369 77.069474l-60.523789 54.918737a101.537684 101.537684 0 0 1-29.318737 18.809263v-250.448842h123.957895zM274.863158 153.86947399999997c49.690947 0 96.202105-26.839579 121.317053-70.063158l210.135578 2.640842V772.149895a45.702737 45.702737 0 0 1-45.648842 45.648842H123.796211a45.702737 45.702737 0 0 1-45.648843-45.648842V86.50105299999996h80.087579c20.318316 40.528842 66.829474 67.368421 116.628211 67.368421z m538.947368 0c49.690947 0 96.202105-26.839579 121.317053-70.063158l75.398737 2.533052V277.827368H808.421053V614.669474h-123.957895v-528.168421h12.719158c20.318316 40.528842 66.829474 67.368421 116.62821 67.368421z m-538.947368-78.147369c-34.169263 0-61.978947-27.809684-61.978947-61.978947 0-34.169263 27.809684-61.978947 61.978947-61.978947 34.169263 0 61.978947 27.809684 61.978947 61.978947 0 34.169263-27.809684 61.978947-61.978947 61.978947z m538.947368 0c-34.169263 0-61.978947-27.809684-61.978947-61.978947 0-34.169263 27.809684-61.978947 61.978947-61.978947 34.169263 0 61.978947 27.809684 61.978948 61.978947 0 34.169263-27.809684 61.978947-61.978948 61.978947z m0-202.105263a140.341895 140.341895 0 0 0-140.018526 134.736842H414.881684a140.288 140.288 0 0 0-140.018526-134.736842 140.341895 140.341895 0 0 0-140.018526 134.736842H0V772.149895A123.957895 123.957895 0 0 0 123.796211 896h436.870736A123.957895 123.957895 0 0 0 684.463158 772.149895V692.816842h161.468631a182.164211 182.164211 0 0 0 122.448843-47.265684l60.523789-54.972632A182.703158 182.703158 0 0 0 1088.673684 455.626105v-447.272421h-134.844631a140.288 140.288 0 0 0-140.018527-134.736842z"  horiz-adv-x="1131" />

    
    <glyph glyph-name="confirmed" unicode="&#58902;" d="M281.307429 608.987429a35.693714 35.693714 0 0 0 0 71.338666h379.66019c19.651048 0 35.693714-15.993905 35.693714-35.693714a35.742476 35.742476 0 0 0-35.693714-35.596191H281.307429z m0-232.106667a35.693714 35.693714 0 0 0 0 71.289905h379.66019c19.651048 0 35.693714-15.993905 35.693714-35.693715a35.742476 35.742476 0 0 0-35.693714-35.59619H281.307429z m0-217.575619a35.693714 35.693714 0 0 0 0 71.387428h179.297523a35.693714 35.693714 0 0 0 0-71.387428H281.307429z m-118.00381-266.873905a139.02019 139.02019 0 0 0-138.971429 138.825143V757.126095A139.02019 139.02019 0 0 0 163.352381 895.951238h617.618286a138.971429 138.971429 0 0 0 138.873904-138.825143v-325.095619a36.08381 36.08381 0 0 0-72.167619 0V757.126095a66.80381 66.80381 0 0 1-66.706285 66.706286H163.303619c-36.815238 0-66.80381-29.93981-66.803809-66.706286v-725.869714c0-36.766476 29.988571-66.706286 66.803809-66.706286h315.489524a36.376381 36.376381 0 0 0 34.864762-36.083809 36.08381 36.08381 0 0 0-36.132572-36.08381l-314.221714 0.048762zM885.51619-9.606094999999982c-30.72-30.817524-71.68-47.737905-115.175619-47.737905a161.596952 161.596952 0 0 0-115.224381 47.786667 162.084571 162.084571 0 0 0-47.786666 115.321904c0 43.593143 16.969143 84.553143 47.786666 115.370667 30.72 30.72 71.68 47.689143 115.224381 47.689143 43.495619 0 84.455619-16.969143 115.175619-47.786667 30.817524-30.817524 47.786667-71.68 47.786667-115.370666 0-43.593143-16.969143-84.455619-47.786667-115.273143M770.340571 319.04914299999996A213.23581 213.23581 0 0 1 557.153524 105.61828600000001 213.23581 213.23581 0 0 1 770.340571-107.617524 213.23581 213.23581 0 0 1 983.527619 105.66704800000002 213.23581 213.23581 0 0 1 770.438095 319.04914299999996M857.86819 119.36914300000001h-75.142095v75.288381a25.161143 25.161143 0 0 1-25.112381 25.112381 25.161143 25.161143 0 0 1-25.063619-25.112381v-100.449524c0-13.702095 11.264-25.014857 25.063619-25.014857h100.303238a25.161143 25.161143 0 0 1 25.112381 25.063619 25.209905 25.209905 0 0 1-25.161143 25.112381"  horiz-adv-x="1024" />

    
    <glyph glyph-name="iconarrow_right" unicode="&#58893;" d="M680.448 383.268571L230.180571 817.737143a39.350857 39.350857 0 0 0 0 53.979428l14.262858 13.897143c14.336 13.897143 40.813714 13.897143 55.588571 0l493.787429-474.624a39.350857 39.350857 0 0 0 0-53.979428L302.811429-117.613714c-14.336-13.897143-40.813714-13.897143-55.588572 0l-14.336 13.897143a39.350857 39.350857 0 0 0 0 53.979428l447.634286 433.005714z"  horiz-adv-x="1024" />

    
    <glyph glyph-name="saoma" unicode="&#58896;" d="M0.064 545.024a31.232 31.232 0 0 1 62.528 0V833.472H351.424a31.232 31.232 0 1 1 0 62.528H29.696l-0.64-0.128H28.096L27.264 895.68 26.56 895.616 25.6 895.488 25.024 895.36 24.384 895.168 23.552 895.04 23.168 894.912a19.008 19.008 0 0 1-1.152-0.32L21.568 894.4 20.544 894.08 20.16 893.952 19.136 893.44a31.36 31.36 0 0 1-1.344-0.64L17.536 892.8 16.448 892.16H16.32L15.104 891.456 14.784 891.2a36.096 36.096 0 0 1-0.896-0.576L13.312 890.304a25.28 25.28 0 0 1-0.64-0.512L12.096 889.408a16.256 16.256 0 0 1-0.704-0.576L10.944 888.384 10.304 887.872 9.728 887.296a19.328 19.328 0 0 1-0.512-0.448L8.704 886.336l-0.512-0.64L7.744 885.312l-0.512-0.64-0.512-0.64-0.448-0.512-0.64-0.896-0.192-0.32-0.448-0.64-0.384-0.64a4.672 4.672 0 0 1-0.256-0.448L3.904 879.616 3.456 878.912l-0.32-0.64-0.32-0.768L2.56 876.8l-0.32-0.64L1.984 875.392 1.728 874.688l-0.256-0.64A20.48 20.48 0 0 1 1.344 873.216l-0.192-0.64a31.68 31.68 0 0 1-0.256-1.088L0.704 871.04 0.512 869.888 0.448 869.504 0.32 868.416 0.256 867.904 0.192 867.008 0.064 866.368v-0.896L0.064 864.768v-319.744zM1022.464 867.968A31.232 31.232 0 0 1 991.424 896H671.424a31.232 31.232 0 1 1 0-62.528H960.064v-288.448a31.232 31.232 0 1 1 62.464 0V864.768c0 1.088 0 2.112-0.192 3.2zM351.424-63.552H62.976l-0.384 288.384a31.232 31.232 0 0 1-62.528-0.128l0.448-319.552v-0.768l0.064-0.832 0.064-0.768 0.064-0.832 0.128-0.832 0.064-0.704c0-0.32 0.128-0.64 0.192-0.896l0.064-0.64 0.256-0.896 0.128-0.64 0.256-0.96 0.128-0.512 0.384-1.024 0.128-0.448a24.96 24.96 0 0 1 0.384-1.024l0.192-0.384a30.016 30.016 0 0 1 0.512-1.088l0.064-0.256 0.64-1.152 0.064-0.192 0.64-1.216 0.128-0.128a31.232 31.232 0 0 1 26.752-15.04H351.424a31.232 31.232 0 1 1 0 62.528z m639.424 319.616a31.232 31.232 0 0 1-31.232-31.296v-288.32h-288.128a31.232 31.232 0 1 1 0-62.528h319.36c17.28 0 31.296 14.016 31.296 31.296v319.552a31.232 31.232 0 0 1-31.296 31.296z m0 160.192L31.168 414.464a31.232 31.232 0 0 1 0.064-62.464H31.424l959.552 1.728a31.232 31.232 0 0 1 0 62.528z"  horiz-adv-x="1024" />

    
    <glyph glyph-name="Fill" unicode="&#58882;" d="M534.653377-59.746377a79.174202 79.174202 0 0 0-56.309238 23.319987l-455.024151 455.024151a79.629226 79.629226 0 0 0 112.618477 112.618478L534.653377 132.501326 1274.636403 872.484352a79.174202 79.174202 0 0 0 112.618477 0 79.629226 79.629226 0 0 0 0-112.618477l-796.292264-796.292265A79.174202 79.174202 0 0 0 534.653377-59.746377"  horiz-adv-x="1478" />

    
    <glyph glyph-name="icon-test2" unicode="&#58887;" d="M731.8016 71.57759999999996l-19.2-165.5808H179.2l16.0768 138.5984c187.904 258.4064 300.3392 418.304 337.2544 479.744 36.864 61.3376 57.344 109.2608 61.3376 143.6672 3.072 26.4192 0.8192 46.08-6.656 59.0848-7.4752 13.0048-20.48 19.5072-38.8608 19.5072s-32.9216-7.168-43.5712-21.6064c-10.7008-14.3872-18.4832-43.008-23.4496-85.8112L470.6304 546.816H253.44l4.096 35.3792c6.2976 54.4256 14.08 97.28 23.296 128.7168 9.216 31.3856 26.624 62.3104 52.1216 92.672A244.8384 244.8384 0 0 0 426.752 872.6016C463.7696 888.2176 506.88 896 556.0832 896c96.4096 0 166.5024-23.9104 210.432-71.68 43.8272-47.8208 61.4912-108.3392 53.0432-181.504-6.4512-55.6032-27.136-114.432-62.1568-176.4352-34.9696-61.952-132.096-193.536-291.4304-394.752h265.8304z"  horiz-adv-x="1024" />

    
    <glyph glyph-name="icon-test1" unicode="&#58888;" d="M729.357474 896L626.364632-126.544842H371.173053L426.415158 421.726316c7.976421 79.171368 10.886737 126.760421 8.677053 142.767158-2.155789 16.006737-11.371789 28.079158-27.594106 36.271158-16.222316 8.245895-53.786947 12.341895-112.747789 12.341894H269.473684l12.018527 119.376842C407.552 758.945684 506.718316 813.487158 578.991158 896h150.366316z"  horiz-adv-x="1024" />

    
    <glyph glyph-name="icon-test3" unicode="&#58892;" d="M676.7616 455.5776c35.3792-12.3904 60.5184-32.6656 75.3664-60.8768 14.848-28.16 16.4864-94.3104 4.864-198.2976-8.6016-77.2096-24.064-137.1136-46.4384-179.712-22.3744-42.5984-56.4224-75.008-102.0928-97.1776-45.6704-22.2208-102.2976-33.28-169.8816-33.28-76.8 0-135.68 12.8512-176.64 38.656-40.8576 25.8048-66.1504 57.3952-75.776 94.8224-9.6256 37.376-9.2672 102.2976 1.024 194.6624l8.6016 76.8h242.3808l-17.6128-157.7984c-4.6592-41.984-5.12-68.6592-1.4336-80.0768 3.7376-11.4176 14.1824-17.1008 31.3856-17.1008 18.7904 0 32 7.168 39.6288 21.6064 7.5776 14.3872 14.7968 52.0192 21.5552 112.7936l7.5264 67.2256c4.1472 37.1712 3.0208 64.3584-3.4816 81.5616-6.5024 17.2032-17.6128 28.5184-33.4336 33.8944-15.7696 5.4272-47.2576 8.4992-94.3616 9.3184l15.7696 141.0048c57.6 0 93.44 2.2016 107.52 6.6048 14.08 4.4032 24.9856 13.9776 32.6144 28.7744 7.68 14.848 13.2608 38.0416 16.7936 69.632l6.0416 53.9648c3.7888 33.9968 2.7648 56.4224-3.0208 67.2256-5.7856 10.752-16.0768 16.1792-30.8736 16.1792-16.7936 0-28.928-5.6832-36.4032-17.1008-7.4752-11.3664-13.312-35.6864-17.4592-72.9088L470.016 576.256H227.6352l9.216 82.7904C247.296 751.8208 275.456 814.4896 321.536 847.104 367.5136 879.7184 436.6848 896 529.152 896c115.5584 0 191.488-22.5792 227.584-67.7888 36.1984-45.2096 49.7664-108.032 40.8064-188.416-6.144-54.3744-17.92-93.696-35.3792-117.9136-17.5104-24.1664-45.9776-46.2848-85.4016-66.304z"  horiz-adv-x="1024" />

    
    <glyph glyph-name="iconEyixuanze" unicode="&#58886;" d="M512 384m-512 0a512 512 0 1 1 1024 0 512 512 0 1 1-1024 0ZM448 184.878545a21.271273 21.271273 0 0 0-15.080727 6.237091l-170.682182 170.682182a21.317818 21.317818 0 0 0 30.161454 30.161455l155.601455-155.554909 283.601455 283.554909a21.317818 21.317818 0 1 0 30.161454-30.161455l-298.682182-298.682182a21.271273 21.271273 0 0 0-15.080727-6.237091z"  horiz-adv-x="1024" />

    
    <glyph glyph-name="jilu" unicode="&#58885;" d="M688 336c-124.8 0-224-99.2-224-224s99.2-224 224-224 224 99.2 224 224-99.2 224-224 224z m0-384c-89.6 0-160 70.4-160 160s70.4 160 160 160 160-70.4 160-160-70.4-160-160-160z m-220.8 640c16 0 28.8 12.8 28.8 32s-12.8 32-28.8 32H284.8c-16 0-28.8-12.8-28.8-32s12.8-32 28.8-32H467.2z m-179.2-192h368c19.2 0 32 12.8 32 32s-12.8 32-32 32H288c-19.2 0-32-12.8-32-32s12.8-32 32-32zM432-16h-224c-19.2 0-32 12.8-32 32v768c0 19.2 12.8 32 32 32h512c54.4 0 96-41.6 96-96v-345.6c0-19.2 12.8-32 32-32s32 12.8 32 32v345.6c0 89.6-70.4 160-160 160h-512C153.6 880 112 838.4 112 784v-768c0-54.4 41.6-96 96-96h224c19.2 0 32 12.8 32 32s-16 32-32 32zM768 128h-64v32c0 19.2-12.8 32-32 32s-32-12.8-32-32v-64c0-19.2 12.8-32 32-32H768c19.2 0 32 12.8 32 32s-12.8 32-32 32z"  horiz-adv-x="1024" />

    
    <glyph glyph-name="iconCCCDweixuanze" unicode="&#58884;" d="M512 872.727273C242.501818 872.727273 23.272727 653.451636 23.272727 384c0-269.498182 219.252364-488.727273 488.727273-488.727273 269.498182 0 488.727273 219.229091 488.727273 488.727273 0 269.451636-219.229091 488.727273-488.727273 488.727273m0-1000.727273C229.701818-128 0 101.701818 0 384.023273 0 666.344727 229.701818 896 512 896s512-229.701818 512-511.976727C1024 101.725091 794.344727-128 512-128"  horiz-adv-x="1024" />

    
    <glyph glyph-name="shangjia" unicode="&#58880;" d="M1142.705231 492.071385c-20.48 0-37.021538-17.329231-37.021539-38.912v-497.427693H74.043077V453.159385a37.966769 37.966769 0 0 1-37.021539 38.912c-20.48 0-37.021538-17.329231-37.021538-38.912v-536.418462c0-21.504 16.541538-38.912 37.021538-38.912h1105.683693c20.48 0 37.021538 17.329231 37.021538 38.912v536.418462a37.966769 37.966769 0 0 1-37.021538 38.912zM562.018462 882.609231A36.233846 36.233846 0 0 0 589.902769 896a36.233846 36.233846 0 0 0 27.884308-13.390769l286.72-301.843693a40.408615 40.408615 0 0 0 0-55.059692 35.761231 35.761231 0 0 0-52.302769 0L627.003077 762.88V250.092308c0-20.48-14.808615-38.203077-34.343385-39.620923-21.740308-1.654154-39.699692 16.384-39.699692 38.83323v513.575385L327.995077 526.178462a35.997538 35.997538 0 0 0-50.806154-2.441847 40.408615 40.408615 0 0 0-1.969231 57.107693L561.939692 882.609231z"  horiz-adv-x="1181" />

    
    <glyph glyph-name="xiajia" unicode="&#58883;" d="M1142.598881 492.013676c-20.478094 0-37.018093-17.327618-37.018093-38.908379v-497.381397H74.036186V453.105297a37.963236 37.963236 0 0 1-37.018093 38.908379c-20.478094 0-37.018093-17.327618-37.018093-38.908379v-536.368538c0-21.501999 16.539999-38.908379 37.018093-38.908378h1105.580788c20.478094 0 37.018093 17.327618 37.018093 38.908378v536.368538a37.963236 37.963236 0 0 1-37.018093 38.908379zM561.966155 223.593121a36.230474 36.230474 0 0 1 27.881713-13.389523 36.230474 36.230474 0 0 1 27.881713 13.389523l286.693315 301.8156a40.404855 40.404855 0 0 1 0 55.13333 35.757903 35.757903 0 0 1-52.297901 0L626.944723 343.311209V856.129939c0 20.556856-14.807237 38.199521-34.340188 39.617235-21.738284 1.732762-39.695998-16.303713-39.695998-38.829616v-513.527587L327.964551 580.06948a35.994188 35.994188 0 0 1-50.801425 2.52038 40.404855 40.404855 0 0 1-1.969048-57.181139l286.693316-301.8156z"  horiz-adv-x="1181" />

    
    <glyph glyph-name="search" unicode="&#58881;" d="M1008.355556-36.579556l-227.043556 227.328a52.337778 52.337778 0 0 1-16.611556 11.320889A428.430222 428.430222 0 0 1 428.487111 896a428.430222 428.430222 0 1 1 265.784889-764.359111 52.849778 52.849778 0 0 1 11.264-16.611556l226.986667-227.328a53.589333 53.589333 0 0 1 75.832889 75.719111zM426.666667 156.444444a312.888889 312.888889 0 1 0 0 625.777778 312.888889 312.888889 0 0 0 0-625.777778z"  horiz-adv-x="1024" />

    
    <glyph glyph-name="iconarrow_down-copy" unicode="&#60236;" d="M714.77911513 208.17847476999998L1146.91513648 678.2944053a37.67444132 37.67444132 0 0 0 53.66062286 1e-8l13.74607993-14.96795376a45.82026602 45.82026602 0 0 0 0-58.03900365L742.47492042 89.75854221999998a37.67444132 37.67444132 0 0 0-53.76244528 1e-8L216.86555631 602.53823179a45.82026602 45.82026602 0 0 0 0 58.03900426L230.61163623 675.54518919a37.67444132 37.67444132 0 0 0 53.66062285 0l430.50685605-467.36671442z"  horiz-adv-x="1706" />

    
    <glyph glyph-name="yuancircle" unicode="&#60214;" d="M190.87942542 62.87942541999996c177.05788302-177.05788302 465.17161529-177.05788302 642.22949831 0s177.05788302 465.17161529 0 642.22949831-465.17161529 177.05788302-642.22949831 0S13.8215424 239.94895928999995 190.87942542 62.87942541999996zM226.11157902 669.90007182c157.64757618 157.64757618 414.15256747 157.64757618 571.80014365 0 157.62427449-157.63592533 157.62427449-414.15256747 0-571.80014364-157.64757618-157.63592533-414.17586915-157.63592533-571.80014365 0C68.46400285 255.74750434999999 68.46400285 512.26414649 226.11157902 669.90007182z"  horiz-adv-x="1024" />

    
    <glyph glyph-name="duihao" unicode="&#60215;" d="M692.19335938 534.68847656L446.08203125 288.57714844l-114.24902344 114.27539062c-10.04589844 10.04589844-26.3671875 10.04589844-36.41308593 0-10.04589844-10.04589844-10.04589844-26.3671875 0-36.41308593l129.33105468-129.33105469c0.87011719-1.23925781 1.39746094-2.66308594 2.50488282-3.77050782 5.19433594-5.19433594 12.0234375-7.59375 18.82617187-7.40917968 6.80273438-0.15820313 13.65820313 2.21484375 18.85253906 7.40917968 1.10742188 1.10742188 1.63476563 2.53125 2.50488282 3.77050782l261.16699218 261.16699219c10.04589844 10.04589844 10.04589844 26.3671875 0 36.41308593C718.53417969 544.734375 702.23925781 544.734375 692.19335938 534.68847656zM512 805.875C278.99316406 805.875 90.125 617.00683594 90.125 384c0-233.00683594 188.86816406-421.875 421.875-421.875 232.98046875 0 421.875 188.86816406 421.875 421.875C933.875 617.00683594 745.00683594 805.875 512 805.875zM512 14.859375C308.12890625 14.859375 142.859375 180.12890625 142.859375 384 142.859375 587.87109375 308.12890625 753.140625 512 753.140625c203.87109375 0 369.140625-165.26953125 369.140625-369.140625C881.140625 180.12890625 715.87109375 14.859375 512 14.859375z"  horiz-adv-x="1024" />

    


  </font>
</defs>
</svg>
